<svg width="640" height="1025" viewBox="0 0 640 1025" fill="none" xmlns="http://www.w3.org/2000/svg">
<path d="M640 28.6137L-8.34465e-06 28.6138M640 127.666L-8.34465e-06 127.666M640 226.718L-8.34465e-06 226.718M640 325.77L-8.34465e-06 325.77M640 424.823L-8.34465e-06 424.823M640 523.875L-8.34465e-06 523.875M640 622.927L-8.34465e-06 622.927M640 721.979L-8.34465e-06 721.979M640 821.031L-8.34465e-06 821.031M640 920.083L-8.34465e-06 920.084M506.256 -75L506.256 1025M381.538 -75L381.539 1025M256.821 -75L256.821 1025M132.103 -75L132.103 1025" stroke="url(#paint0_linear_164_12)" stroke-opacity="0.1" stroke-dasharray="6 6"/>
<defs>
<linearGradient id="paint0_linear_164_12" x1="139" y1="605.5" x2="783.321" y2="121.407" gradientUnits="userSpaceOnUse">
<stop stop-color="white" stop-opacity="0"/>
<stop offset="0.781048" stop-color="white"/>
<stop offset="1" stop-color="white" stop-opacity="0"/>
</linearGradient>
</defs>
</svg>
