<svg width="318" height="41" viewBox="0 0 318 41" fill="none" xmlns="http://www.w3.org/2000/svg">
<path d="M3.64453 40V35.2148H24.8633C27.7253 35.2148 29.9219 34.6589 31.4531 33.5469C33.0026 32.4349 33.7773 30.8125 33.7773 28.6797V28.625C33.7773 27.1667 33.4036 25.9544 32.6562 24.9883C31.9271 24.0221 30.8516 23.3021 29.4297 22.8281C28.0078 22.3542 26.2669 22.1172 24.207 22.1172H3.64453V17.5508H22.8672C25.7292 17.5508 27.9531 17.013 29.5391 15.9375C31.125 14.8438 31.918 13.3034 31.918 11.3164V11.2617C31.918 9.3112 31.2526 7.83464 29.9219 6.83203C28.6094 5.82943 26.7956 5.32812 24.4805 5.32812H3.64453V0.542969H25.875C28.2266 0.542969 30.2865 0.953125 32.0547 1.77344C33.8411 2.59375 35.2266 3.74219 36.2109 5.21875C37.2135 6.69531 37.7148 8.42708 37.7148 10.4141V10.4688C37.7148 11.8724 37.4049 13.1849 36.7852 14.4062C36.1654 15.6276 35.2904 16.6667 34.1602 17.5234C33.0482 18.362 31.7448 18.9271 30.25 19.2188V19.3008C32.2005 19.5378 33.8776 20.0938 35.2812 20.9688C36.7031 21.8255 37.7969 22.9375 38.5625 24.3047C39.3281 25.6719 39.7109 27.2305 39.7109 28.9805V29.0352C39.7109 31.3138 39.1549 33.2734 38.043 34.9141C36.9492 36.5547 35.3633 37.8125 33.2852 38.6875C31.2253 39.5625 28.7552 40 25.875 40H3.64453ZM0.746094 40V0.542969H6.51562V40H0.746094ZM44.6602 40V0.542969H50.2656V40H44.6602ZM72.4688 40.6289C69.0599 40.6289 66.0612 40.0182 63.4727 38.7969C60.8841 37.5755 58.8607 35.8529 57.4023 33.6289C55.944 31.4049 55.2148 28.7708 55.2148 25.7266V25.6719C55.2148 22.6276 55.944 20.0026 57.4023 17.7969C58.8607 15.5729 60.8841 13.8503 63.4727 12.6289C66.0612 11.4076 69.0599 10.7969 72.4688 10.7969C75.8776 10.7969 78.8763 11.4076 81.4648 12.6289C84.0716 13.8503 86.1042 15.5729 87.5625 17.7969C89.0208 20.0026 89.75 22.6276 89.75 25.6719V25.7266C89.75 28.7708 89.0208 31.4049 87.5625 33.6289C86.1042 35.8529 84.0807 37.5755 81.4922 38.7969C78.9036 40.0182 75.8958 40.6289 72.4688 40.6289ZM72.4961 35.9805C74.7747 35.9805 76.7799 35.5794 78.5117 34.7773C80.2435 33.9753 81.5924 32.8177 82.5586 31.3047C83.543 29.7734 84.0352 27.9141 84.0352 25.7266V25.6719C84.0352 23.5026 83.543 21.6615 82.5586 20.1484C81.5924 18.6172 80.2344 17.4505 78.4844 16.6484C76.7526 15.8464 74.7474 15.4453 72.4688 15.4453C70.2083 15.4453 68.2031 15.8464 66.4531 16.6484C64.7214 17.4505 63.3633 18.6172 62.3789 20.1484C61.4128 21.6615 60.9297 23.5026 60.9297 25.6719V25.7266C60.9297 27.9141 61.4128 29.7734 62.3789 31.3047C63.3633 32.8177 64.7214 33.9753 66.4531 34.7773C68.2031 35.5794 70.2174 35.9805 72.4961 35.9805ZM110.203 40.6289C106.74 40.6289 103.723 40.0182 101.152 38.7969C98.6003 37.5573 96.6224 35.8255 95.2188 33.6016C93.8151 31.3594 93.1133 28.7344 93.1133 25.7266V25.6719C93.1133 22.6823 93.8151 20.0755 95.2188 17.8516C96.6406 15.6094 98.6276 13.8776 101.18 12.6562C103.732 11.4167 106.73 10.7969 110.176 10.7969C113.184 10.7969 115.827 11.2617 118.105 12.1914C120.384 13.1029 122.216 14.3607 123.602 15.9648C125.005 17.569 125.898 19.4102 126.281 21.4883L126.336 21.7344H120.73L120.676 21.5156C120.056 19.6927 118.862 18.2253 117.094 17.1133C115.344 16.0013 113.074 15.4453 110.285 15.4453C107.934 15.4453 105.901 15.8646 104.188 16.7031C102.474 17.5234 101.152 18.7083 100.223 20.2578C99.293 21.7891 98.8281 23.6029 98.8281 25.6992V25.7539C98.8281 27.8685 99.293 29.6914 100.223 31.2227C101.152 32.7539 102.474 33.9297 104.188 34.75C105.901 35.5703 107.943 35.9805 110.312 35.9805C113.047 35.9805 115.298 35.4427 117.066 34.3672C118.835 33.2917 120.038 31.806 120.676 29.9102L120.758 29.6914H126.336L126.309 29.9375C125.889 32.0703 124.96 33.9388 123.52 35.543C122.098 37.1471 120.257 38.3958 117.996 39.2891C115.736 40.1823 113.138 40.6289 110.203 40.6289ZM130.957 40V0.542969H136.562V40H130.957ZM155.73 40L140.992 25.125L145.176 22.0078L162.758 40H155.73ZM135.168 30.4844V24.1406H136.672L154.445 11.3984H162.266L144.465 24.2773L143.754 24.4414L135.168 30.4844ZM180.039 40.6289C176.576 40.6289 173.559 40.0182 170.988 38.7969C168.436 37.5573 166.458 35.8255 165.055 33.6016C163.651 31.3594 162.949 28.7344 162.949 25.7266V25.6719C162.949 22.6823 163.651 20.0755 165.055 17.8516C166.477 15.6094 168.464 13.8776 171.016 12.6562C173.568 11.4167 176.566 10.7969 180.012 10.7969C183.02 10.7969 185.663 11.2617 187.941 12.1914C190.22 13.1029 192.052 14.3607 193.438 15.9648C194.841 17.569 195.734 19.4102 196.117 21.4883L196.172 21.7344H190.566L190.512 21.5156C189.892 19.6927 188.698 18.2253 186.93 17.1133C185.18 16.0013 182.91 15.4453 180.121 15.4453C177.77 15.4453 175.737 15.8646 174.023 16.7031C172.31 17.5234 170.988 18.7083 170.059 20.2578C169.129 21.7891 168.664 23.6029 168.664 25.6992V25.7539C168.664 27.8685 169.129 29.6914 170.059 31.2227C170.988 32.7539 172.31 33.9297 174.023 34.75C175.737 35.5703 177.779 35.9805 180.148 35.9805C182.883 35.9805 185.134 35.4427 186.902 34.3672C188.671 33.2917 189.874 31.806 190.512 29.9102L190.594 29.6914H196.172L196.145 29.9375C195.725 32.0703 194.796 33.9388 193.355 35.543C191.934 37.1471 190.092 38.3958 187.832 39.2891C185.572 40.1823 182.974 40.6289 180.039 40.6289ZM200.711 40V0.542969H206.316V17.1953H206.426C207.501 15.1901 209.115 13.6224 211.266 12.4922C213.417 11.362 215.914 10.7969 218.758 10.7969C221.565 10.7969 223.971 11.3529 225.977 12.4648C227.982 13.5586 229.522 15.1263 230.598 17.168C231.691 19.2096 232.238 21.6615 232.238 24.5234V40H226.633V25.3984C226.633 22.1901 225.822 19.7383 224.199 18.043C222.577 16.3477 220.225 15.5 217.145 15.5C214.975 15.5 213.07 15.9284 211.43 16.7852C209.807 17.6419 208.549 18.8451 207.656 20.3945C206.763 21.944 206.316 23.7487 206.316 25.8086V40H200.711ZM249.738 40.5742C247.186 40.5742 244.962 40.237 243.066 39.5625C241.171 38.8698 239.694 37.8581 238.637 36.5273C237.579 35.1966 237.051 33.5651 237.051 31.6328V31.5781C237.051 29.974 237.452 28.5703 238.254 27.3672C239.074 26.1458 240.341 25.1888 242.055 24.4961C243.786 23.8034 246.02 23.4206 248.754 23.3477L265.215 22.9922V26.9023L249.383 27.3125C247.031 27.3672 245.327 27.7591 244.27 28.4883C243.23 29.2174 242.711 30.2018 242.711 31.4414V31.4961C242.711 33.0456 243.449 34.2122 244.926 34.9961C246.402 35.7617 248.344 36.1445 250.75 36.1445C253.102 36.1445 255.143 35.8164 256.875 35.1602C258.625 34.5039 259.983 33.5833 260.949 32.3984C261.934 31.2135 262.426 29.819 262.426 28.2148V22.0898C262.426 19.957 261.605 18.3073 259.965 17.1406C258.342 15.9557 256.055 15.3633 253.102 15.3633C250.477 15.3633 248.362 15.8099 246.758 16.7031C245.172 17.5781 244.178 18.763 243.777 20.2578L243.695 20.5039H238.281L238.336 20.2031C238.609 18.3984 239.375 16.7943 240.633 15.3906C241.909 13.9688 243.595 12.8477 245.691 12.0273C247.806 11.207 250.285 10.7969 253.129 10.7969C256.246 10.7969 258.917 11.2344 261.141 12.1094C263.365 12.9844 265.06 14.2422 266.227 15.8828C267.411 17.5052 268.004 19.4466 268.004 21.707V40H262.426V34.8867H262.289C261.615 36.0352 260.648 37.0378 259.391 37.8945C258.151 38.7331 256.702 39.3893 255.043 39.8633C253.402 40.3372 251.634 40.5742 249.738 40.5742ZM274.238 40V11.4258H279.816V40H274.238ZM277.027 6.83203C276.079 6.83203 275.277 6.52214 274.621 5.90234C273.983 5.26432 273.664 4.4987 273.664 3.60547C273.664 2.69401 273.983 1.92839 274.621 1.30859C275.277 0.688802 276.079 0.378906 277.027 0.378906C277.993 0.378906 278.796 0.688802 279.434 1.30859C280.072 1.92839 280.391 2.69401 280.391 3.60547C280.391 4.4987 280.072 5.26432 279.434 5.90234C278.796 6.52214 277.993 6.83203 277.027 6.83203ZM286.16 40V11.4258H291.738V17.0312H291.875C292.951 15.1172 294.546 13.6042 296.66 12.4922C298.793 11.362 301.29 10.7969 304.152 10.7969C308.382 10.7969 311.663 11.9727 313.996 14.3242C316.348 16.6576 317.523 19.9297 317.523 24.1406V40H311.918V25.043C311.918 21.9258 311.134 19.556 309.566 17.9336C307.999 16.3112 305.674 15.5 302.594 15.5C300.424 15.5 298.52 15.9284 296.879 16.7852C295.257 17.6237 293.99 18.8177 293.078 20.3672C292.185 21.8984 291.738 23.694 291.738 25.7539V40H286.16Z" fill="url(#paint0_linear_164_194)"/>
<defs>
<linearGradient id="paint0_linear_164_194" x1="-3" y1="20.5" x2="350.423" y2="16.0149" gradientUnits="userSpaceOnUse">
<stop stop-color="#FFDE59"/>
<stop offset="1" stop-color="#0CC0DF" stop-opacity="0.87451"/>
</linearGradient>
</defs>
</svg>
