<svg width="322" height="68" viewBox="0 0 322 68" fill="none" xmlns="http://www.w3.org/2000/svg">
<g filter="url(#filter0_d_164_25)">
<rect width="318" height="64" fill="#0CC0DF"/>
<path d="M41.5 38V26.7266H51.5156V28.4219H43.6484V31.4609H50.9844V33.0625H43.6484V36.3047H51.5156V38H41.5ZM53.4922 38L59.0312 31.7344L58.4922 33.0625V32.3438L53.5234 26.7266H56.1875L59.9844 31.1016H60.8594L59.5312 31.75L63.8516 26.7266H66.4375L61.3828 32.3516V33.0703L60.8359 31.75L66.375 38H63.75L59.9453 33.7188H59.0703L60.4375 33.0859L56.0234 38H53.4922ZM69.8047 34.2812V32.6094H75.0938C75.875 32.6094 76.474 32.4297 76.8906 32.0703C77.3125 31.7057 77.5234 31.1901 77.5234 30.5234V30.5078C77.5234 29.8411 77.3125 29.3281 76.8906 28.9688C76.4688 28.6042 75.8698 28.4219 75.0938 28.4219H69.8047V26.7266H75.4375C76.3125 26.7266 77.0677 26.8828 77.7031 27.1953C78.3438 27.5078 78.8385 27.9453 79.1875 28.5078C79.5365 29.0651 79.7109 29.7214 79.7109 30.4766V30.4922C79.7109 31.2474 79.5339 31.9089 79.1797 32.4766C78.8307 33.0443 78.3359 33.487 77.6953 33.8047C77.0599 34.1224 76.3073 34.2812 75.4375 34.2812H69.8047ZM68.7344 38V26.7266H70.8828V38H68.7344ZM82.125 38V26.7266H84.2734V36.2578H91.4609V38H82.125ZM99.6172 38.2422C98.2318 38.2422 97.0234 38.0026 95.9922 37.5234C94.9661 37.0443 94.1693 36.3646 93.6016 35.4844C93.0391 34.6042 92.7578 33.5651 92.7578 32.3672V32.3516C92.7578 31.1536 93.0391 30.1172 93.6016 29.2422C94.1693 28.362 94.9661 27.6823 95.9922 27.2031C97.0234 26.724 98.2318 26.4844 99.6172 26.4844C101.003 26.4844 102.208 26.724 103.234 27.2031C104.266 27.6823 105.062 28.362 105.625 29.2422C106.193 30.1172 106.477 31.1536 106.477 32.3516V32.3672C106.477 33.5651 106.195 34.6042 105.633 35.4844C105.07 36.3646 104.273 37.0443 103.242 37.5234C102.216 38.0026 101.008 38.2422 99.6172 38.2422ZM99.6172 36.4609C100.56 36.4609 101.38 36.2943 102.078 35.9609C102.781 35.6224 103.323 35.1458 103.703 34.5312C104.089 33.9167 104.281 33.1953 104.281 32.3672V32.3516C104.281 31.5182 104.089 30.7969 103.703 30.1875C103.323 29.5729 102.781 29.099 102.078 28.7656C101.38 28.4323 100.56 28.2656 99.6172 28.2656C98.6745 28.2656 97.8542 28.4323 97.1562 28.7656C96.4583 29.099 95.9167 29.5729 95.5312 30.1875C95.1458 30.7969 94.9531 31.5182 94.9531 32.3516V32.3672C94.9531 33.1953 95.1432 33.9167 95.5234 34.5312C95.9089 35.1458 96.4505 35.6224 97.1484 35.9609C97.8516 36.2943 98.6745 36.4609 99.6172 36.4609ZM109 38V26.7266H116.07C116.94 26.7266 117.682 26.8698 118.297 27.1562C118.917 27.4375 119.391 27.8385 119.719 28.3594C120.047 28.875 120.211 29.4896 120.211 30.2031V30.2188C120.211 31.026 120 31.7135 119.578 32.2812C119.156 32.849 118.547 33.2526 117.75 33.4922L120.594 38H118.109L115.555 33.8125C115.539 33.8125 115.521 33.8125 115.5 33.8125C115.479 33.8125 115.458 33.8125 115.438 33.8125H111.148V38H109ZM111.148 32.2109H115.898C116.576 32.2109 117.099 32.0443 117.469 31.7109C117.839 31.3776 118.023 30.9089 118.023 30.3047V30.2891C118.023 29.7005 117.831 29.2396 117.445 28.9062C117.065 28.5677 116.534 28.3984 115.852 28.3984H111.148V32.2109ZM122.922 38V26.7266H132.938V28.4219H125.07V31.4609H132.406V33.0625H125.07V36.3047H132.938V38H122.922ZM140.094 38V26.7266H149.984V28.4766H142.242V31.7656H149.484V33.4297H142.242V38H140.094ZM158.375 38.2344C157.141 38.2344 156.078 38.0286 155.188 37.6172C154.297 37.2005 153.609 36.6016 153.125 35.8203C152.646 35.0391 152.406 34.0938 152.406 32.9844V26.7266H154.562V32.9141C154.562 33.6641 154.708 34.3021 155 34.8281C155.292 35.3542 155.719 35.7578 156.281 36.0391C156.849 36.3151 157.547 36.4531 158.375 36.4531C159.203 36.4531 159.901 36.3151 160.469 36.0391C161.036 35.7578 161.466 35.3542 161.758 34.8281C162.049 34.3021 162.195 33.6641 162.195 32.9141V26.7266H164.344V32.9844C164.344 34.0938 164.104 35.0391 163.625 35.8203C163.151 36.6016 162.466 37.2005 161.57 37.6172C160.68 38.0286 159.615 38.2344 158.375 38.2344ZM167.328 38V26.7266H169.258L178.305 36.0859L176.258 35.0078H177.234V26.7266H179.32V38H177.391L168.344 28.6172L170.391 29.6953H169.414V38H167.328ZM182.328 38V26.7266H188.422C189.755 26.7266 190.888 26.9479 191.82 27.3906C192.753 27.8281 193.461 28.4635 193.945 29.2969C194.43 30.1302 194.672 31.138 194.672 32.3203V32.3359C194.672 33.5391 194.43 34.5625 193.945 35.4062C193.461 36.25 192.753 36.8932 191.82 37.3359C190.893 37.7786 189.76 38 188.422 38H182.328ZM184.477 36.2578H188.273C189.174 36.2578 189.938 36.1094 190.562 35.8125C191.188 35.5156 191.661 35.0781 191.984 34.5C192.312 33.9219 192.477 33.2135 192.477 32.375V32.3594C192.477 31.526 192.315 30.8203 191.992 30.2422C191.674 29.6589 191.203 29.2188 190.578 28.9219C189.953 28.6198 189.185 28.4688 188.273 28.4688H184.477V36.2578ZM197.188 38V26.7266H204.258C205.128 26.7266 205.87 26.8698 206.484 27.1562C207.104 27.4375 207.578 27.8385 207.906 28.3594C208.234 28.875 208.398 29.4896 208.398 30.2031V30.2188C208.398 31.026 208.188 31.7135 207.766 32.2812C207.344 32.849 206.734 33.2526 205.938 33.4922L208.781 38H206.297L203.742 33.8125C203.727 33.8125 203.708 33.8125 203.688 33.8125C203.667 33.8125 203.646 33.8125 203.625 33.8125H199.336V38H197.188ZM199.336 32.2109H204.086C204.763 32.2109 205.286 32.0443 205.656 31.7109C206.026 31.3776 206.211 30.9089 206.211 30.3047V30.2891C206.211 29.7005 206.018 29.2396 205.633 28.9062C205.253 28.5677 204.721 28.3984 204.039 28.3984H199.336V32.2109ZM210.242 38L215.719 26.7266H217.609V28.6641H216.945L212.523 38H210.242ZM212.773 35.0781L213.492 33.5078H220.438L221.148 35.0781H212.773ZM221.43 38L217.016 28.6641V26.7266H218.234L223.719 38H221.43ZM231.281 38.2422C230.073 38.2422 229.034 38.112 228.164 37.8516C227.294 37.5859 226.609 37.2057 226.109 36.7109C225.615 36.2109 225.32 35.612 225.227 34.9141L225.211 34.8125H227.336L227.352 34.8906C227.44 35.25 227.648 35.5547 227.977 35.8047C228.305 36.0495 228.753 36.237 229.32 36.3672C229.888 36.4922 230.573 36.5547 231.375 36.5547C232.057 36.5547 232.643 36.487 233.133 36.3516C233.622 36.2109 233.997 36.0104 234.258 35.75C234.523 35.4844 234.656 35.1745 234.656 34.8203V34.8125C234.656 34.3594 234.474 34.0156 234.109 33.7812C233.745 33.5469 233.109 33.3802 232.203 33.2812L229.5 33.0469C228.13 32.8958 227.12 32.5651 226.469 32.0547C225.818 31.5391 225.492 30.8255 225.492 29.9141V29.9062C225.492 29.2031 225.708 28.5964 226.141 28.0859C226.578 27.5755 227.195 27.1823 227.992 26.9062C228.789 26.625 229.734 26.4844 230.828 26.4844C231.969 26.4844 232.948 26.6172 233.766 26.8828C234.589 27.1484 235.237 27.5312 235.711 28.0312C236.19 28.526 236.479 29.1172 236.578 29.8047L236.594 29.8984H234.477L234.461 29.8203C234.352 29.4557 234.148 29.1536 233.852 28.9141C233.555 28.6693 233.156 28.4844 232.656 28.3594C232.156 28.2292 231.544 28.1667 230.82 28.1719C230.154 28.1719 229.583 28.237 229.109 28.3672C228.641 28.4922 228.281 28.6771 228.031 28.9219C227.781 29.1615 227.656 29.4557 227.656 29.8047V29.8125C227.656 30.2396 227.839 30.5703 228.203 30.8047C228.573 31.0391 229.182 31.2005 230.031 31.2891L232.758 31.5234C233.701 31.6276 234.469 31.8073 235.062 32.0625C235.661 32.3125 236.104 32.651 236.391 33.0781C236.677 33.5052 236.82 34.0286 236.82 34.6484V34.6562C236.82 35.4115 236.602 36.0573 236.164 36.5938C235.732 37.125 235.102 37.5339 234.273 37.8203C233.451 38.1016 232.453 38.2422 231.281 38.2422ZM239.297 38V26.7266H249.312V28.4219H241.445V31.4609H248.781V33.0625H241.445V36.3047H249.312V38H239.297ZM252.016 38V26.7266H259.086C259.956 26.7266 260.698 26.8698 261.312 27.1562C261.932 27.4375 262.406 27.8385 262.734 28.3594C263.062 28.875 263.227 29.4896 263.227 30.2031V30.2188C263.227 31.026 263.016 31.7135 262.594 32.2812C262.172 32.849 261.562 33.2526 260.766 33.4922L263.609 38H261.125L258.57 33.8125C258.555 33.8125 258.536 33.8125 258.516 33.8125C258.495 33.8125 258.474 33.8125 258.453 33.8125H254.164V38H252.016ZM254.164 32.2109H258.914C259.591 32.2109 260.115 32.0443 260.484 31.7109C260.854 31.3776 261.039 30.9089 261.039 30.3047V30.2891C261.039 29.7005 260.846 29.2396 260.461 28.9062C260.081 28.5677 259.549 28.3984 258.867 28.3984H254.164V32.2109ZM271.469 38.2422C270.26 38.2422 269.221 38.112 268.352 37.8516C267.482 37.5859 266.797 37.2057 266.297 36.7109C265.802 36.2109 265.508 35.612 265.414 34.9141L265.398 34.8125H267.523L267.539 34.8906C267.628 35.25 267.836 35.5547 268.164 35.8047C268.492 36.0495 268.94 36.237 269.508 36.3672C270.076 36.4922 270.76 36.5547 271.562 36.5547C272.245 36.5547 272.831 36.487 273.32 36.3516C273.81 36.2109 274.185 36.0104 274.445 35.75C274.711 35.4844 274.844 35.1745 274.844 34.8203V34.8125C274.844 34.3594 274.661 34.0156 274.297 33.7812C273.932 33.5469 273.297 33.3802 272.391 33.2812L269.688 33.0469C268.318 32.8958 267.307 32.5651 266.656 32.0547C266.005 31.5391 265.68 30.8255 265.68 29.9141V29.9062C265.68 29.2031 265.896 28.5964 266.328 28.0859C266.766 27.5755 267.383 27.1823 268.18 26.9062C268.977 26.625 269.922 26.4844 271.016 26.4844C272.156 26.4844 273.135 26.6172 273.953 26.8828C274.776 27.1484 275.424 27.5312 275.898 28.0312C276.378 28.526 276.667 29.1172 276.766 29.8047L276.781 29.8984H274.664L274.648 29.8203C274.539 29.4557 274.336 29.1536 274.039 28.9141C273.742 28.6693 273.344 28.4844 272.844 28.3594C272.344 28.2292 271.732 28.1667 271.008 28.1719C270.341 28.1719 269.771 28.237 269.297 28.3672C268.828 28.4922 268.469 28.6771 268.219 28.9219C267.969 29.1615 267.844 29.4557 267.844 29.8047V29.8125C267.844 30.2396 268.026 30.5703 268.391 30.8047C268.76 31.0391 269.37 31.2005 270.219 31.2891L272.945 31.5234C273.888 31.6276 274.656 31.8073 275.25 32.0625C275.849 32.3125 276.292 32.651 276.578 33.0781C276.865 33.5052 277.008 34.0286 277.008 34.6484V34.6562C277.008 35.4115 276.789 36.0573 276.352 36.5938C275.919 37.125 275.289 37.5339 274.461 37.8203C273.638 38.1016 272.641 38.2422 271.469 38.2422Z" fill="white"/>
</g>
<defs>
<filter id="filter0_d_164_25" x="0" y="0" width="322" height="68" filterUnits="userSpaceOnUse" color-interpolation-filters="sRGB">
<feFlood flood-opacity="0" result="BackgroundImageFix"/>
<feColorMatrix in="SourceAlpha" type="matrix" values="0 0 0 0 0 0 0 0 0 0 0 0 0 0 0 0 0 0 127 0" result="hardAlpha"/>
<feOffset dx="4" dy="4"/>
<feComposite in2="hardAlpha" operator="out"/>
<feColorMatrix type="matrix" values="0 0 0 0 1 0 0 0 0 1 0 0 0 0 1 0 0 0 1 0"/>
<feBlend mode="normal" in2="BackgroundImageFix" result="effect1_dropShadow_164_25"/>
<feBlend mode="normal" in="SourceGraphic" in2="effect1_dropShadow_164_25" result="shape"/>
</filter>
</defs>
</svg>
