<svg width="255" height="51" viewBox="0 0 255 51" fill="none" xmlns="http://www.w3.org/2000/svg">
<path d="M19.4141 0.542969L5.22266 49.5703H0L14.2188 0.542969H19.4141ZM38.5547 50.2266C35.638 50.2266 33.0768 49.9076 30.8711 49.2695C28.6654 48.6315 26.8424 47.7201 25.4023 46.5352C23.9805 45.3685 22.9688 44.0013 22.3672 42.4336L22.2852 42.1602H28.4102L28.5469 42.3789C29.276 43.418 30.4701 44.2292 32.1289 44.8125C33.806 45.4141 35.9479 45.7148 38.5547 45.7148C42.3281 45.7148 45.1628 44.9766 47.0586 43.5C48.9544 42.0417 49.9023 40.0091 49.9023 37.4023V34.3945H49.793C49.0091 35.5977 47.9883 36.6458 46.7305 37.5391C45.4727 38.4141 44.0052 39.0977 42.3281 39.5898C40.651 40.0638 38.8008 40.3008 36.7773 40.3008C33.5872 40.3008 30.8164 39.6719 28.4648 38.4141C26.1133 37.138 24.2995 35.3971 23.0234 33.1914C21.7474 30.9674 21.1094 28.4336 21.1094 25.5898V25.5352C21.1094 22.6914 21.7474 20.1667 23.0234 17.9609C24.3177 15.737 26.1406 13.9961 28.4922 12.7383C30.8438 11.4622 33.6146 10.8242 36.8047 10.8242C38.8281 10.8242 40.6693 11.0794 42.3281 11.5898C44.0052 12.082 45.4635 12.7839 46.7031 13.6953C47.9609 14.6068 48.9909 15.6641 49.793 16.8672H49.9023V11.4258H55.5078V37.7031C55.5078 40.2734 54.8424 42.4974 53.5117 44.375C52.1992 46.2526 50.276 47.6927 47.7422 48.6953C45.2266 49.7161 42.1641 50.2266 38.5547 50.2266ZM38.3086 35.7344C40.6237 35.7344 42.6471 35.3151 44.3789 34.4766C46.1289 33.638 47.4779 32.4622 48.4258 30.9492C49.3919 29.418 49.875 27.6315 49.875 25.5898V25.5352C49.875 23.5117 49.3919 21.7435 48.4258 20.2305C47.4779 18.7174 46.1289 17.5417 44.3789 16.7031C42.6471 15.8464 40.6237 15.418 38.3086 15.418C35.957 15.418 33.9154 15.8281 32.1836 16.6484C30.4701 17.4688 29.1484 18.6354 28.2188 20.1484C27.2891 21.6432 26.8242 23.4388 26.8242 25.5352V25.5898C26.8242 27.6862 27.2891 29.5 28.2188 31.0312C29.1484 32.5443 30.4701 33.7109 32.1836 34.5312C33.9154 35.3333 35.957 35.7344 38.3086 35.7344ZM61.8242 40V11.4258H67.4023V40H61.8242ZM64.6133 6.83203C63.6654 6.83203 62.8633 6.52214 62.207 5.90234C61.569 5.26432 61.25 4.4987 61.25 3.60547C61.25 2.69401 61.569 1.92839 62.207 1.30859C62.8633 0.688802 63.6654 0.378906 64.6133 0.378906C65.5794 0.378906 66.3815 0.688802 67.0195 1.30859C67.6576 1.92839 67.9766 2.69401 67.9766 3.60547C67.9766 4.4987 67.6576 5.26432 67.0195 5.90234C66.3815 6.52214 65.5794 6.83203 64.6133 6.83203ZM85.6133 40L71.2852 11.4258H77.2461L88.5938 34.8047H88.7031L99.8867 11.4258H105.82L91.6562 40H85.6133ZM121.379 40L107.051 11.4258H113.012L124.359 34.8047H124.469L135.652 11.4258H141.586L127.422 40H121.379ZM159.742 40.6289C156.151 40.6289 153.061 40.0456 150.473 38.8789C147.884 37.7122 145.897 36.026 144.512 33.8203C143.126 31.6146 142.434 28.944 142.434 25.8086V25.7812C142.434 22.7552 143.135 20.1211 144.539 17.8789C145.961 15.6185 147.93 13.8685 150.445 12.6289C152.979 11.3893 155.941 10.7878 159.332 10.8242C162.759 10.8424 165.694 11.4805 168.137 12.7383C170.598 13.9779 172.475 15.7188 173.77 17.9609C175.082 20.2031 175.738 22.8281 175.738 25.8359V27.1758H145.25V23.1562H172.348L170.242 26.4102V24.8242C170.242 22.8737 169.796 21.1966 168.902 19.793C168.027 18.3711 166.779 17.2773 165.156 16.5117C163.534 15.7461 161.592 15.3633 159.332 15.3633C156.962 15.3633 154.93 15.737 153.234 16.4844C151.557 17.2318 150.272 18.3438 149.379 19.8203C148.486 21.2969 148.039 23.1289 148.039 25.3164V26.2188C148.039 28.625 148.577 30.5482 149.652 31.9883C150.728 33.4284 152.159 34.4766 153.945 35.1328C155.75 35.7708 157.728 36.0898 159.879 36.0898C161.374 36.0898 162.777 35.9258 164.09 35.5977C165.402 35.2695 166.542 34.7956 167.508 34.1758C168.474 33.556 169.185 32.7904 169.641 31.8789L169.723 31.6602H175.273L175.191 31.9336C174.736 33.3555 174.025 34.6133 173.059 35.707C172.092 36.7826 170.926 37.6849 169.559 38.4141C168.191 39.1432 166.678 39.6901 165.02 40.0547C163.361 40.4375 161.602 40.6289 159.742 40.6289ZM194.934 40.6289C191.725 40.6289 188.991 40.2917 186.73 39.6172C184.47 38.9245 182.702 37.931 181.426 36.6367C180.168 35.3242 179.411 33.7474 179.156 31.9062L179.129 31.6875H184.707L184.762 31.9062C185.108 33.3646 186.129 34.4766 187.824 35.2422C189.52 35.9896 191.926 36.3633 195.043 36.3633C196.902 36.3633 198.47 36.1992 199.746 35.8711C201.04 35.5247 202.016 35.0326 202.672 34.3945C203.328 33.7383 203.656 32.9544 203.656 32.043V32.0156C203.656 30.9219 203.228 30.1016 202.371 29.5547C201.533 28.9896 200.047 28.5794 197.914 28.3242L189.93 27.4766C187.742 27.2031 185.91 26.7292 184.434 26.0547C182.975 25.3802 181.872 24.5052 181.125 23.4297C180.396 22.3542 180.031 21.0781 180.031 19.6016V19.5742C180.031 17.7695 180.578 16.2109 181.672 14.8984C182.784 13.5859 184.37 12.5742 186.43 11.8633C188.49 11.1523 190.941 10.7969 193.785 10.7969C196.811 10.7969 199.391 11.1523 201.523 11.8633C203.674 12.556 205.342 13.5404 206.527 14.8164C207.712 16.0924 208.378 17.6146 208.523 19.3828L208.551 19.7383H203.273L203.246 19.5742C203.027 18.1888 202.098 17.0951 200.457 16.293C198.816 15.4909 196.611 15.0898 193.84 15.0898C192.072 15.0898 190.577 15.263 189.355 15.6094C188.152 15.9375 187.241 16.4206 186.621 17.0586C186.001 17.6784 185.691 18.4258 185.691 19.3008V19.3281C185.691 20.0208 185.883 20.6133 186.266 21.1055C186.667 21.5977 187.286 21.9987 188.125 22.3086C188.982 22.6185 190.103 22.8646 191.488 23.0469L199.5 23.8945C203 24.3138 205.516 25.1432 207.047 26.3828C208.578 27.6224 209.344 29.3815 209.344 31.6602V31.6875C209.344 33.5286 208.77 35.1146 207.621 36.4453C206.473 37.776 204.823 38.806 202.672 39.5352C200.521 40.2643 197.941 40.6289 194.934 40.6289ZM228.457 40.5195C224.848 40.5195 222.168 39.763 220.418 38.25C218.668 36.7188 217.793 34.349 217.793 31.1406V15.8008H211.504V11.4258H217.793V3.82422H223.453V11.4258H232.996V15.8008H223.453V30.6758C223.453 32.681 223.936 34.0938 224.902 34.9141C225.868 35.7344 227.445 36.1445 229.633 36.1445C230.198 36.1445 230.79 36.1172 231.41 36.0625C232.03 35.9896 232.559 35.9076 232.996 35.8164V40.1367C232.376 40.2461 231.674 40.3372 230.891 40.4102C230.107 40.4831 229.296 40.5195 228.457 40.5195ZM254.406 0.542969L240.215 49.5703H234.992L249.211 0.542969H254.406Z" fill="url(#paint0_linear_164_62)"/>
<defs>
<linearGradient id="paint0_linear_164_62" x1="2.71899e-09" y1="20.5" x2="278.174" y2="17.7216" gradientUnits="userSpaceOnUse">
<stop stop-color="#FFDE59"/>
<stop offset="1" stop-color="#0CC0DF" stop-opacity="0.87451"/>
</linearGradient>
</defs>
</svg>
