<svg width="160" height="33" viewBox="0 0 160 33" fill="none" xmlns="http://www.w3.org/2000/svg">
<path d="M0 18.3358C0 15.8267 0.353207 13.6427 1.05962 11.7837C1.76604 9.91166 2.74062 8.35813 3.98339 7.12311C5.23924 5.8751 6.69785 4.94558 8.35923 4.33457C10.0206 3.71056 11.8063 3.39856 13.7162 3.39856C15.1814 3.39856 16.3522 3.46356 17.2287 3.59356C18.1182 3.71056 18.9031 3.86007 19.5834 4.04207C20.2767 4.21107 21.0485 4.37357 21.8988 4.52958L21.7026 8.60514C20.7738 8.13713 19.7076 7.75363 18.5041 7.45462C17.3137 7.14262 15.6458 6.98661 13.5004 6.98661C11.7997 6.98661 10.2888 7.41562 8.96753 8.27363C7.65936 9.13164 6.63244 10.3667 5.88678 11.9787C5.14112 13.5907 4.76829 15.5407 4.76829 17.8288C4.76829 20.0128 5.08226 21.9888 5.71018 23.7569C6.3381 25.5249 7.29307 26.9289 8.57508 27.9689C9.87017 28.9959 11.5119 29.5094 13.5004 29.5094C14.56 29.5094 15.6196 29.4249 16.6792 29.2559C17.7519 29.0869 18.563 28.8269 19.1124 28.4759V20.7928L20.2702 21.5923L13.9713 21.3193V17.9848H23.5471V30.9135C23.1154 30.9395 22.6314 31.063 22.0951 31.284C21.5587 31.492 20.9177 31.7325 20.172 32.0055C19.4264 32.2655 18.5172 32.493 17.4445 32.688C16.3849 32.896 15.1094 33 13.6181 33C10.727 33 8.26766 32.3695 6.23999 31.1085C4.21232 29.8345 2.66213 28.0924 1.58943 25.8824C0.52981 23.6724 0 21.1568 0 18.3358Z" fill="white"/>
<path d="M33.2438 32.688V11.0037H37.757V32.688H33.2438Z" fill="white"/>
<path d="M54.1584 33L45.5637 10.9647H50.4497L54.5901 23.0354L56.7878 30.3285H55.6105L57.6316 23.0354L61.6346 10.9647H66.4422L58.0633 33H54.1584Z" fill="white"/>
<path d="M79.6601 33L71.0654 10.9647H75.9515L80.0918 23.0354L82.2896 30.3285H81.1122L83.1333 23.0354L87.1363 10.9647H91.9439L83.565 33H79.6601Z" fill="white"/>
<path d="M107.565 33C104.425 33 102.005 32.012 100.305 30.036C98.604 28.0599 97.7537 25.3169 97.7537 21.8068C97.7537 19.7008 98.1265 17.8158 98.8722 16.1517C99.6309 14.4877 100.743 13.1682 102.208 12.1932C103.686 11.2182 105.498 10.7177 107.644 10.6917C108.742 10.6657 109.776 10.8217 110.744 11.1597C111.712 11.4977 112.569 12.0112 113.314 12.7002C114.06 13.3762 114.649 14.2342 115.08 15.2742C115.525 16.3143 115.767 17.5298 115.807 18.9208C115.807 19.7398 115.8 20.4743 115.787 21.1243C115.774 21.7613 115.715 22.3268 115.61 22.8208H100.383L100.776 19.9738H111.568C111.633 18.9338 111.568 17.9523 111.372 17.0293C111.189 16.0932 110.783 15.3392 110.155 14.7672C109.54 14.1822 108.625 13.8897 107.408 13.8897C106.388 13.8897 105.472 14.1757 104.661 14.7477C103.85 15.3067 103.222 16.2558 102.777 17.5948C102.332 18.9338 102.149 20.7668 102.228 23.0939C102.306 24.7319 102.64 26.0254 103.228 26.9744C103.817 27.9234 104.589 28.5994 105.544 29.0024C106.499 29.4054 107.565 29.607 108.742 29.607C109.239 29.607 109.848 29.555 110.567 29.4509C111.287 29.3339 111.98 29.1909 112.647 29.0219C113.328 28.8399 113.844 28.6449 114.197 28.4369L115.061 31.011C114.577 31.401 113.916 31.7455 113.079 32.0445C112.255 32.3435 111.359 32.5775 110.391 32.7465C109.423 32.9155 108.481 33 107.565 33Z" fill="white"/>
<path d="M123.68 31.401L124.308 28.0859C124.504 28.2289 124.909 28.4239 125.524 28.6709C126.152 28.9049 126.898 29.1259 127.761 29.3339C128.638 29.5289 129.54 29.633 130.469 29.646C131.725 29.659 132.68 29.4444 133.334 29.0024C133.988 28.5604 134.315 27.9429 134.315 27.1499C134.315 26.5909 134.119 26.1034 133.727 25.6874C133.334 25.2714 132.791 24.8879 132.098 24.5369C131.418 24.1729 130.639 23.7959 129.763 23.4059C128.585 22.8728 127.545 22.2943 126.643 21.6703C125.74 21.0463 125.034 20.3118 124.524 19.4668C124.026 18.6218 123.784 17.6078 123.798 16.4248C123.824 15.1377 124.197 14.0717 124.916 13.2267C125.649 12.3687 126.617 11.7317 127.82 11.3157C129.024 10.8997 130.365 10.6917 131.843 10.6917C133.216 10.6917 134.42 10.8347 135.453 11.1207C136.487 11.3937 137.167 11.6277 137.494 11.8227L136.827 15.2157C136.591 15.0207 136.225 14.8322 135.728 14.6502C135.244 14.4552 134.682 14.2992 134.041 14.1822C133.4 14.0652 132.745 14.0067 132.078 14.0067C130.744 14.0067 129.737 14.2017 129.056 14.5917C128.376 14.9687 128.023 15.5017 127.997 16.1908C127.984 17.1398 128.311 17.8483 128.978 18.3163C129.658 18.7843 130.469 19.2458 131.411 19.7008C132.758 20.3508 133.975 20.9943 135.061 21.6313C136.147 22.2553 137.004 22.9769 137.631 23.7959C138.272 24.6019 138.593 25.6029 138.593 26.7989C138.593 28.8269 137.893 30.3675 136.493 31.4205C135.094 32.4735 133.177 33 130.744 33C129.737 33 128.755 32.922 127.801 32.766C126.859 32.61 126.021 32.4085 125.289 32.1615C124.569 31.9145 124.033 31.661 123.68 31.401Z" fill="white"/>
<path d="M153.878 33C152.844 33 151.935 32.8375 151.15 32.5125C150.365 32.1875 149.75 31.6155 149.306 30.7965C148.874 29.9645 148.658 28.7879 148.658 27.2669V14.2797H145.832V11.8617C146.801 11.5887 147.54 11.3612 148.05 11.1792C148.56 10.9842 148.933 10.5747 149.168 9.95066C149.273 9.66465 149.391 9.32665 149.522 8.93664C149.652 8.53364 149.796 8.09163 149.953 7.61062C150.11 7.11662 150.28 6.58361 150.463 6.0116H153.171V10.9647H159.294V14.2797H153.171V24.8879C153.171 26.2919 153.23 27.3189 153.348 27.9689C153.479 28.6059 153.714 29.0154 154.054 29.1974C154.408 29.3664 154.924 29.4509 155.605 29.4509C155.971 29.4509 156.389 29.4119 156.86 29.3339C157.344 29.2429 157.802 29.1324 158.234 29.0024C158.679 28.8724 159.019 28.7359 159.254 28.5929L160 31.167C159.608 31.466 159.078 31.7585 158.411 32.0445C157.756 32.3175 157.03 32.545 156.232 32.727C155.448 32.909 154.663 33 153.878 33Z" fill="white"/>
<path d="M35.5219 7.31261L34.8995 6.78658C32.6889 4.92555 31.2295 3.69416 31.2295 2.19179C31.2295 0.960403 32.2683 0 33.5903 0C34.3372 0 35.0541 0.322791 35.5219 0.828895C35.9898 0.322791 36.7067 0 37.4535 0C38.7756 0 39.8144 0.960403 39.8144 2.19179C39.8144 3.69416 38.355 4.92555 36.1443 6.78658L35.5219 7.31261Z" fill="url(#paint0_linear_164_105)"/>
<defs>
<linearGradient id="paint0_linear_164_105" x1="43.0694" y1="-1.57067" x2="30.0106" y2="7.40425" gradientUnits="userSpaceOnUse">
<stop stop-color="#FFDE59"/>
<stop offset="1" stop-color="#0CC0DF"/>
</linearGradient>
</defs>
</svg>
