<svg width="222" height="222" viewBox="0 0 222 222" fill="none" xmlns="http://www.w3.org/2000/svg">
<path d="M44.1655 85.8688L31.6499 79.3927L32.7775 77.2164L46.0877 77.0005L46.1282 76.9224L38.6179 65.9442L39.7501 63.7592L52.2656 70.2352L51.3626 71.9781L41.6225 66.9381L41.2137 67.7272L40.0058 64.8151L48.5907 77.328L47.8314 78.7934L32.6514 79.0093L35.7327 78.3056L35.3239 79.0947L45.064 84.1346L44.1655 85.8688Z" fill="white"/>
<path d="M55.5178 66.2384L50.5775 51.2784L51.7755 50.0872L53.2369 51.5537L52.8006 51.9875L57.076 64.6891L55.5178 66.2384ZM54.9073 61.3231L54.317 59.5964L60.4803 53.4682L62.1924 54.0795L54.9073 61.3231ZM65.5522 56.2611L52.856 51.9324L51.3946 50.4659L52.1633 49.7016L67.1172 54.705L65.5522 56.2611Z" fill="white"/>
<path d="M70.4402 46.9962L69.1904 44.7747L69.6608 44.5155L73.9897 34.4599L76.5557 33.0463L72.3306 42.6434L72.1428 42.9699L70.4402 46.9962ZM71.3622 51.9961L64.5466 39.6622L66.3514 38.6679L73.167 51.0019L71.3622 51.9961ZM81.3185 46.5112L71.4309 43.7411L72.1503 41.873L83.7733 45.1588L81.3185 46.5112Z" fill="white"/>
<path d="M88.7529 43.5905L85.428 29.8965L97.3314 27.02L97.7462 28.7282L87.8456 31.1207L88.8572 35.2868L98.1028 33.0525L98.5037 34.7038L89.2581 36.938L90.3411 41.3983L100.242 39.0058L100.656 40.7139L88.7529 43.5905Z" fill="white"/>
<path d="M118.899 35.7734L119.299 33.2561L119.829 33.3445L129.467 28.1414L132.357 28.6236L123.084 33.5314L122.734 33.671L118.899 35.7734ZM116.517 40.2668L118.833 26.3667L120.866 26.7059L118.549 40.606L116.517 40.2668ZM127.729 42.138L121.697 33.8346L123.422 32.8154L130.494 42.5993L127.729 42.138Z" fill="white"/>
<path d="M135.504 44.7254L140.599 31.5869L142.521 32.3313L137.426 45.4699L135.504 44.7254Z" fill="white"/>
<path d="M144.222 48.267L152.029 36.535L153.639 37.6049L156.677 54.5821L155.547 52.2959L156.336 52.82L162.53 43.5109L164.222 44.6348L156.416 56.3668L154.789 55.2861L151.773 38.3115L152.89 40.6005L152.1 40.0763L145.906 49.3855L144.222 48.267Z" fill="white"/>
<path d="M161.175 60.7943L172.08 51.8686L176.807 57.6287C177.839 58.8869 178.503 60.1317 178.797 61.3629C179.092 62.5942 179.021 63.7708 178.586 64.8927C178.151 66.0146 177.364 67.0415 176.225 67.9735L176.21 67.9859C175.061 68.9261 173.891 69.5012 172.699 69.7112C171.507 69.9213 170.333 69.7632 169.177 69.2371C168.03 68.7119 166.939 67.8177 165.902 66.5544L161.175 60.7943ZM163.858 61.2614L167.197 65.3305C167.973 66.2767 168.784 66.9466 169.629 67.3401C170.474 67.7337 171.335 67.8492 172.212 67.6865C173.099 67.5247 173.978 67.0872 174.849 66.3738L174.864 66.3614C175.736 65.648 176.338 64.8778 176.67 64.0508C177.007 63.2196 177.063 62.3491 176.838 61.4392C176.623 60.5301 176.127 59.6025 175.351 58.6563L172.012 54.5873L163.858 61.2614Z" fill="white"/>
<path d="M173.711 77.7349L186.753 72.3982L187.487 74.1868L180.488 89.945L180.833 87.4189L181.193 88.2952L191.542 84.0606L192.314 85.9396L179.271 91.2763L178.529 89.4696L185.546 73.7258L185.187 76.2465L184.827 75.3702L174.479 79.6049L173.711 77.7349Z" fill="white"/>
<path d="M180.617 97.6772L194.624 96.1349L195.975 108.306L194.228 108.499L193.104 98.3753L188.843 98.8445L189.892 108.298L188.203 108.484L187.154 99.0304L182.591 99.5328L183.715 109.656L181.968 109.849L180.617 97.6772Z" fill="white"/>
<path d="M180.425 122.625C180.655 121.166 181.01 119.94 181.489 118.948C181.968 117.955 182.554 117.208 183.247 116.704C183.939 116.2 184.715 115.957 185.576 115.974L185.695 115.973L185.371 118.028L185.262 118.03C184.753 118.082 184.294 118.299 183.884 118.683C183.48 119.067 183.133 119.622 182.841 120.347C182.548 121.072 182.318 121.969 182.15 123.036C182.005 123.956 181.977 124.759 182.067 125.445C182.155 126.138 182.352 126.687 182.658 127.091C182.962 127.501 183.362 127.746 183.857 127.824L183.867 127.825C184.503 127.926 185.025 127.751 185.432 127.301C185.839 126.851 186.208 126.02 186.537 124.806L187.355 121.564C187.795 119.94 188.39 118.781 189.138 118.089C189.885 117.403 190.806 117.146 191.899 117.318L191.909 117.32C192.745 117.452 193.427 117.826 193.956 118.444C194.485 119.061 194.841 119.872 195.026 120.877C195.21 121.881 195.2 123.033 194.995 124.332C194.78 125.696 194.434 126.847 193.957 127.787C193.479 128.726 192.893 129.435 192.198 129.912C191.503 130.395 190.728 130.629 189.873 130.612L189.774 130.616L190.098 128.562L190.197 128.558C190.729 128.483 191.194 128.273 191.591 127.927C191.994 127.589 192.332 127.095 192.606 126.446C192.885 125.805 193.101 124.999 193.254 124.028C193.395 123.134 193.425 122.354 193.346 121.689C193.266 121.024 193.082 120.494 192.795 120.1C192.514 119.712 192.132 119.481 191.649 119.405L191.64 119.403C191.048 119.31 190.549 119.485 190.143 119.928C189.743 120.379 189.391 121.167 189.088 122.292L188.27 125.544C187.959 126.682 187.591 127.593 187.167 128.277C186.743 128.961 186.243 129.436 185.667 129.701C185.091 129.966 184.431 130.04 183.685 129.922L183.675 129.921C182.768 129.777 182.034 129.395 181.473 128.772C180.919 128.151 180.549 127.321 180.363 126.284C180.184 125.247 180.204 124.027 180.425 122.625Z" fill="white"/>
<path d="M174.727 140.905C175.342 139.561 176.014 138.476 176.744 137.65C177.473 136.824 178.239 136.261 179.041 135.962C179.844 135.664 180.658 135.638 181.482 135.887L181.597 135.918L180.731 137.809L180.625 137.782C180.121 137.695 179.62 137.78 179.121 138.039C178.629 138.301 178.145 138.742 177.668 139.361C177.191 139.981 176.727 140.782 176.278 141.764C175.89 142.611 175.647 143.377 175.548 144.062C175.446 144.752 175.488 145.334 175.673 145.805C175.856 146.282 176.175 146.625 176.631 146.833L176.64 146.838C177.226 147.106 177.776 147.078 178.289 146.754C178.802 146.431 179.381 145.729 180.026 144.649L181.688 141.747C182.55 140.302 183.435 139.346 184.343 138.881C185.248 138.421 186.203 138.422 187.21 138.882L187.219 138.886C187.988 139.238 188.545 139.783 188.888 140.519C189.231 141.256 189.355 142.133 189.262 143.15C189.169 144.167 188.849 145.273 188.301 146.469C187.727 147.724 187.083 148.739 186.369 149.515C185.656 150.291 184.9 150.816 184.102 151.088C183.302 151.366 182.493 151.383 181.674 151.137L181.577 151.114L182.443 149.223L182.54 149.246C183.073 149.318 183.577 149.241 184.053 149.014C184.532 148.797 184.991 148.412 185.429 147.861C185.871 147.319 186.297 146.601 186.706 145.707C187.083 144.884 187.322 144.142 187.425 143.48C187.527 142.818 187.494 142.258 187.323 141.801C187.156 141.353 186.851 141.027 186.407 140.824L186.398 140.82C185.853 140.57 185.326 140.605 184.815 140.922C184.308 141.249 183.756 141.913 183.162 142.915L181.496 145.826C180.89 146.837 180.29 147.616 179.697 148.16C179.104 148.705 178.494 149.028 177.868 149.128C177.242 149.228 176.586 149.122 175.899 148.807L175.89 148.803C175.055 148.422 174.452 147.856 174.079 147.105C173.713 146.358 173.58 145.459 173.681 144.41C173.787 143.364 174.136 142.195 174.727 140.905Z" fill="white"/>
<path d="M158.612 163.223L162.396 167.424L172.996 169.243L171.187 170.868L162.864 169.419L162.799 169.478L163.357 177.904L161.548 179.529L160.856 168.808L157.072 164.607L158.612 163.223Z" fill="white"/>
<path d="M140.623 174.841C142.166 174.114 143.636 173.751 145.035 173.754C146.433 173.757 147.682 174.104 148.779 174.796C149.874 175.496 150.74 176.52 151.378 177.868L151.386 177.885C152.024 179.233 152.261 180.55 152.099 181.836C151.939 183.127 151.415 184.31 150.526 185.384C149.64 186.465 148.428 187.367 146.891 188.092C145.348 188.819 143.877 189.181 142.479 189.179C141.077 189.184 139.829 188.837 138.734 188.137C137.637 187.445 136.769 186.426 136.131 185.078L136.123 185.06C135.486 183.713 135.247 182.393 135.406 181.101C135.563 179.818 136.087 178.635 136.979 177.553C137.865 176.472 139.08 175.569 140.623 174.841ZM141.4 176.483C140.239 177.03 139.329 177.708 138.667 178.517C138.002 179.334 137.611 180.227 137.493 181.197C137.376 182.166 137.555 183.154 138.031 184.161L138.039 184.178C138.518 185.191 139.169 185.956 139.99 186.476C140.815 187.001 141.753 187.264 142.805 187.265C143.851 187.268 144.954 186.997 146.114 186.45C147.263 185.908 148.171 185.232 148.838 184.42C149.5 183.612 149.893 182.721 150.016 181.749C150.136 180.785 149.957 179.797 149.478 178.785L149.47 178.767C148.994 177.761 148.343 176.995 147.519 176.47C146.694 175.945 145.757 175.677 144.709 175.668C143.657 175.667 142.554 175.939 141.4 176.483Z" fill="white"/>
<path d="M120.255 180.77C121.777 180.56 123.116 180.638 124.271 181.005C125.42 181.372 126.348 182 127.056 182.888C127.766 183.782 128.214 184.907 128.402 186.261L129.478 194.009L127.437 194.29L126.373 186.629C126.233 185.624 125.914 184.79 125.415 184.13C124.916 183.475 124.257 183.011 123.437 182.736C122.611 182.469 121.634 182.413 120.505 182.569C119.383 182.724 118.464 183.041 117.748 183.521C117.027 184.008 116.516 184.634 116.215 185.398C115.914 186.169 115.834 187.058 115.973 188.064L117.037 195.725L114.986 196.007L113.91 188.259C113.722 186.905 113.848 185.702 114.287 184.649C114.726 183.602 115.452 182.747 116.464 182.081C117.476 181.416 118.74 180.979 120.255 180.77Z" fill="white"/>
<path d="M106.492 181.788L104.421 195.727L95.7954 194.443C94.8102 194.296 93.9828 193.996 93.3132 193.54C92.6427 193.092 92.1607 192.526 91.8671 191.844C91.5671 191.161 91.4807 190.391 91.6079 189.535L91.6108 189.516C91.761 188.504 92.1554 187.688 92.7942 187.065C93.4255 186.448 94.2586 186.069 95.2933 185.927L92.6017 179.721L95.0069 180.079L97.4875 185.977C97.5068 185.98 97.5261 185.983 97.5454 185.986C97.5647 185.988 97.5873 185.992 97.613 185.996L103.65 186.894L104.454 181.485L106.492 181.788ZM103.402 188.565L96.9494 187.605C96.0415 187.47 95.3066 187.587 94.7447 187.958C94.1755 188.334 93.8296 188.934 93.7072 189.758L93.7043 189.778C93.5857 190.576 93.7542 191.237 94.2098 191.759C94.658 192.286 95.3393 192.618 96.2537 192.754L102.638 193.704L103.402 188.565Z" fill="white"/>
<path d="M79.5951 174.824L66.0982 182.973L64.669 182.072L65.7745 180.322L66.2949 180.65L77.7364 173.652L79.5951 174.824ZM74.935 176.515L73.3816 177.475L66.0295 172.84L66.2447 171.036L74.935 176.515ZM67.6252 167.277L66.2288 180.608L65.1234 182.359L64.2064 181.78L65.7583 166.1L67.6252 167.277Z" fill="white"/>
<path d="M57.8882 157.383C58.8733 158.485 59.5983 159.535 60.0632 160.534C60.5281 161.532 60.7365 162.459 60.6882 163.313C60.6399 164.167 60.3366 164.922 59.7783 165.577L59.7038 165.67L58.3174 164.119L58.3845 164.033C58.667 163.607 58.7894 163.114 58.7518 162.554C58.7094 161.999 58.4999 161.378 58.1233 160.694C57.7468 160.009 57.1984 159.264 56.478 158.458C55.8575 157.764 55.253 157.234 54.6646 156.869C54.0719 156.499 53.5224 156.305 53.0159 156.285C52.5052 156.261 52.0628 156.416 51.6887 156.75L51.6814 156.756C51.2004 157.185 51.0053 157.699 51.096 158.299C51.1867 158.899 51.5976 159.71 52.3287 160.733L54.3224 163.417C55.3017 164.785 55.8225 165.978 55.885 166.996C55.9431 168.008 55.5592 168.883 54.7333 169.619L54.726 169.626C54.0944 170.189 53.3721 170.48 52.559 170.499C51.746 170.517 50.892 170.28 49.9971 169.787C49.1023 169.294 48.2165 168.558 47.34 167.577C46.42 166.548 45.7473 165.552 45.322 164.588C44.8966 163.624 44.7192 162.722 44.7897 161.883C44.8558 161.039 45.1656 160.291 45.7191 159.64L45.779 159.561L47.1654 161.111L47.1056 161.191C46.8259 161.65 46.6943 162.142 46.7107 162.669C46.7179 163.194 46.8862 163.768 47.2155 164.391C47.5356 165.012 48.0233 165.69 48.6786 166.423C49.2817 167.097 49.8662 167.614 50.4318 167.973C50.9974 168.332 51.524 168.526 52.0115 168.553C52.4898 168.58 52.9111 168.431 53.2755 168.106L53.2828 168.1C53.7298 167.701 53.9101 167.204 53.8237 166.61C53.7282 166.014 53.3403 165.244 52.6602 164.297L50.66 161.606C49.9761 160.646 49.5034 159.785 49.2419 159.024C48.9804 158.262 48.9292 157.575 49.0884 156.962C49.2476 156.349 49.609 155.791 50.1726 155.288L50.1799 155.282C50.8649 154.671 51.6261 154.345 52.4635 154.305C53.2959 154.269 54.1729 154.507 55.0943 155.02C56.0109 155.538 56.9422 156.325 57.8882 157.383Z" fill="white"/>
<path d="M47.3185 141.402C47.9705 142.728 48.3859 143.935 48.5647 145.022C48.7435 146.109 48.6946 147.057 48.418 147.867C48.1414 148.676 47.646 149.321 46.9318 149.802L46.8352 149.871L45.9176 148.004L46.0054 147.939C46.3923 147.605 46.643 147.163 46.7576 146.614C46.8663 146.068 46.8315 145.414 46.6534 144.653C46.4752 143.892 46.1477 143.027 45.6709 142.057C45.2602 141.221 44.8207 140.549 44.3524 140.039C43.8812 139.523 43.4043 139.187 42.9218 139.032C42.4365 138.871 41.9687 138.901 41.5185 139.122L41.5098 139.126C40.931 139.41 40.6045 139.852 40.5304 140.454C40.4562 141.056 40.6335 141.948 41.0621 143.13L42.2594 146.252C42.8338 147.833 43.0141 149.122 42.8002 150.119C42.5835 151.11 41.9783 151.848 40.9844 152.335L40.9756 152.34C40.2156 152.712 39.4416 152.798 38.6535 152.597C37.8655 152.395 37.1069 151.937 36.3778 151.221C35.6488 150.506 34.9941 149.558 34.414 148.377C33.8051 147.139 33.4257 145.998 33.2757 144.955C33.1257 143.912 33.1977 142.996 33.4916 142.206C33.7827 141.411 34.2824 140.775 34.9907 140.297L35.0698 140.237L35.9874 142.104L35.9084 142.164C35.5154 142.531 35.256 142.97 35.13 143.481C34.9954 143.989 35.0028 144.587 35.1524 145.275C35.2932 145.96 35.5805 146.744 36.0142 147.626C36.4134 148.438 36.837 149.093 37.2851 149.591C37.7331 150.09 38.1882 150.418 38.6502 150.575C39.1036 150.73 39.5495 150.7 39.988 150.486L39.9967 150.481C40.5346 150.218 40.8421 149.788 40.9191 149.192C40.9874 148.593 40.8214 147.746 40.4213 146.652L39.2198 143.521C38.8197 142.412 38.5963 141.456 38.5495 140.653C38.5027 139.849 38.6386 139.173 38.957 138.626C39.2755 138.078 39.7738 137.638 40.452 137.306L40.4607 137.302C41.2851 136.898 42.1059 136.789 42.9231 136.976C43.7346 137.166 44.5149 137.632 45.2642 138.374C46.0076 139.119 46.6924 140.128 47.3185 141.402Z" fill="white"/>
<path d="M42.4283 129.788L28.588 132.438L26.2726 120.413L27.999 120.082L29.9248 130.084L34.1354 129.278L32.337 119.938L34.0059 119.618L35.8043 128.958L40.3123 128.095L38.3864 118.093L40.1129 117.762L42.4283 129.788Z" fill="white"/>
<path d="M40.2352 106.371L27.9573 105.423L27.491 111.499L25.719 111.362L26.8091 97.1556L28.5811 97.2924L28.1157 103.359L40.3936 104.306L40.2352 106.371Z" fill="white"/>
<path d="M111 78.9995L102.273 102.272L79 111L102.273 119.727L111 143L119.727 119.727L143 111L119.727 102.272L111 78.9995Z" fill="#FFDE59"/>
</svg>
