<svg width="1920" height="178" viewBox="0 0 1920 178" fill="none" xmlns="http://www.w3.org/2000/svg">
<path d="M-56.8793 167.116L-57.8623 153.059L-55.4171 152.888L-48.3064 164.138L-48.2187 164.132L-42.7527 152.002L-40.2977 151.83L-39.3147 165.888L-41.2728 166.025L-42.0378 155.085L-42.9244 155.147L-41.0663 152.599L-47.2836 166.445L-48.9299 166.56L-57.0137 153.714L-54.8094 155.978L-55.6959 156.04L-54.9309 166.98L-56.8793 167.116ZM-36.9085 165.72L-30.8481 151.17L-29.1628 151.052L-29.0184 153.117L-29.6321 153.16L-34.7166 165.566L-36.9085 165.72ZM-34.152 161.601L-33.4676 159.909L-24.7973 159.303L-23.9035 160.885L-34.152 161.601ZM-22.7926 164.733L-29.5542 153.155L-29.6986 151.089L-28.6173 151.014L-20.5909 164.579L-22.7926 164.733ZM-16.9138 159.485L-17.1111 156.944L-16.5753 156.907L-8.41269 149.601L-5.49014 149.396L-13.3655 156.33L-13.6734 156.547L-16.9138 159.485ZM-18.1847 164.41L-19.1677 150.353L-17.1122 150.209L-16.1292 164.267L-18.1847 164.41ZM-6.84519 163.617L-14.6439 156.948L-13.2043 155.555L-4.04928 163.422L-6.84519 163.617ZM-1.74047 163.26L-2.72346 149.203L9.4928 148.349L9.61542 150.102L-0.545315 150.813L-0.246262 155.089L9.24229 154.426L9.36082 156.121L-0.12773 156.785L0.192441 161.363L10.3532 160.653L10.4758 162.406L-1.74047 163.26ZM20.3974 156.876L20.2001 154.335L20.7359 154.298L28.8985 146.992L31.8211 146.787L23.9457 153.721L23.6379 153.938L20.3974 156.876ZM19.1265 161.801L18.1436 147.744L20.1991 147.6L21.1821 161.658L19.1265 161.801ZM30.466 161.008L22.6674 154.339L24.1069 152.946L33.262 160.813L30.466 161.008ZM35.5708 160.651L34.5878 146.594L36.6433 146.45L37.6263 160.508L35.5708 160.651ZM41.1626 160.26L40.1796 146.203L42.1085 146.068L54.8822 157.666L52.5913 156.544L53.5363 156.478L52.7563 145.323L54.7826 145.182L55.7656 159.239L53.8172 159.375L41.0623 147.766L43.3441 148.899L42.3991 148.965L43.1791 160.119L41.1626 160.26ZM59.2824 158.993L58.2994 144.936L65.7324 144.416C67.3561 144.303 68.7555 144.482 69.9306 144.955C71.1058 145.427 72.0254 146.166 72.6895 147.17C73.3536 148.174 73.737 149.41 73.8397 150.878L73.841 150.897C73.9446 152.378 73.7376 153.665 73.2202 154.759C72.7027 155.852 71.8953 156.718 70.7978 157.356C69.7063 157.987 68.3456 158.36 66.7154 158.474L59.2824 158.993ZM61.2139 157.077L66.4648 156.709C67.6858 156.624 68.7011 156.351 69.5107 155.889C70.3204 155.428 70.9123 154.793 71.2864 153.984C71.6666 153.167 71.8174 152.197 71.7388 151.074L71.7375 151.054C71.6589 149.931 71.378 148.994 70.8949 148.245C70.4113 147.489 69.7333 146.939 68.8608 146.596C67.9944 146.245 66.9507 146.113 65.7298 146.198L60.4789 146.565L61.2139 157.077ZM77.3048 157.733L76.3218 143.676L78.2507 143.541L91.0244 155.139L88.7335 154.017L89.6785 153.951L88.8985 142.796L90.9248 142.654L91.9078 156.712L89.9594 156.848L77.2045 145.239L79.4863 146.372L78.5414 146.438L79.3214 157.592L77.3048 157.733ZM95.4246 156.466L94.4416 142.409L106.658 141.554L106.78 143.308L96.6198 144.018L96.9188 148.295L106.407 147.631L106.526 149.327L97.0373 149.99L97.3575 154.569L107.518 153.858L107.641 155.612L95.4246 156.466ZM117.471 155.208C115.996 155.311 114.722 155.241 113.648 154.996C112.573 154.751 111.713 154.348 111.067 153.786C110.421 153.225 110.009 152.522 109.833 151.68L109.805 151.564L111.88 151.419L111.907 151.525C112.072 152.009 112.387 152.408 112.852 152.722C113.318 153.028 113.936 153.243 114.708 153.365C115.481 153.487 116.406 153.511 117.484 153.435C118.412 153.371 119.201 153.217 119.85 152.976C120.505 152.735 120.996 152.42 121.321 152.032C121.653 151.643 121.801 151.199 121.766 150.698L121.765 150.689C121.721 150.046 121.433 149.576 120.903 149.281C120.374 148.985 119.481 148.812 118.224 148.763L114.881 148.693C113.199 148.628 111.937 148.309 111.094 147.735C110.258 147.16 109.801 146.321 109.724 145.217L109.723 145.207C109.664 144.363 109.876 143.613 110.359 142.96C110.842 142.306 111.552 141.777 112.489 141.372C113.427 140.967 114.552 140.718 115.864 140.627C117.24 140.53 118.44 140.61 119.463 140.864C120.486 141.119 121.308 141.532 121.929 142.102C122.556 142.671 122.957 143.374 123.133 144.21L123.16 144.306L121.085 144.451L121.058 144.355C120.867 143.853 120.558 143.447 120.131 143.138C119.711 142.821 119.154 142.602 118.46 142.481C117.773 142.353 116.938 142.323 115.958 142.392C115.055 142.455 114.288 142.6 113.658 142.827C113.028 143.054 112.553 143.351 112.233 143.72C111.919 144.081 111.779 144.505 111.813 144.992L111.813 145.002C111.855 145.599 112.138 146.046 112.661 146.343C113.19 146.632 114.037 146.798 115.202 146.84L118.555 146.909C119.733 146.957 120.703 147.112 121.465 147.372C122.227 147.631 122.802 148.012 123.189 148.514C123.577 149.015 123.797 149.643 123.85 150.396L123.85 150.406C123.914 151.322 123.706 152.123 123.226 152.809C122.744 153.489 122.019 154.035 121.049 154.449C120.079 154.856 118.886 155.109 117.471 155.208ZM133.701 154.073C132.226 154.176 130.952 154.106 129.878 153.861C128.803 153.616 127.943 153.213 127.297 152.651C126.65 152.09 126.239 151.387 126.063 150.545L126.035 150.429L128.11 150.284L128.137 150.39C128.302 150.875 128.617 151.273 129.082 151.587C129.548 151.894 130.166 152.108 130.938 152.23C131.71 152.353 132.636 152.376 133.714 152.301C134.642 152.236 135.431 152.083 136.08 151.841C136.735 151.6 137.226 151.285 137.551 150.897C137.883 150.508 138.031 150.064 137.996 149.564L137.995 149.554C137.95 148.911 137.663 148.441 137.133 148.146C136.604 147.85 135.71 147.677 134.454 147.628L131.111 147.558C129.429 147.493 128.167 147.174 127.324 146.6C126.487 146.025 126.031 145.186 125.953 144.082L125.953 144.072C125.894 143.228 126.106 142.479 126.589 141.825C127.071 141.171 127.782 140.642 128.719 140.237C129.657 139.832 130.782 139.584 132.094 139.492C133.47 139.395 134.67 139.475 135.693 139.73C136.716 139.984 137.538 140.397 138.158 140.967C138.786 141.536 139.187 142.239 139.363 143.075L139.389 143.171L137.314 143.317L137.288 143.221C137.096 142.718 136.787 142.312 136.361 142.003C135.941 141.686 135.384 141.468 134.69 141.346C134.002 141.218 133.168 141.189 132.188 141.257C131.285 141.32 130.518 141.465 129.888 141.692C129.258 141.919 128.783 142.216 128.463 142.585C128.148 142.946 128.008 143.37 128.042 143.857L128.043 143.867C128.085 144.464 128.367 144.911 128.891 145.208C129.42 145.497 130.267 145.663 131.432 145.705L134.784 145.774C135.963 145.823 136.933 145.977 137.695 146.237C138.457 146.497 139.032 146.877 139.419 147.379C139.807 147.88 140.027 148.508 140.08 149.261L140.08 149.271C140.144 150.187 139.936 150.988 139.455 151.674C138.974 152.354 138.249 152.9 137.279 153.314C136.309 153.721 135.116 153.974 133.701 154.073ZM154.285 152.35L153.89 146.71L146.658 138.757L149.084 138.588L154.749 144.848L154.837 144.842L159.585 137.853L162.011 137.684L155.956 146.565L156.35 152.206L154.285 152.35ZM172.005 151.395C170.304 151.514 168.802 151.319 167.501 150.809C166.199 150.3 165.162 149.524 164.391 148.481C163.626 147.432 163.191 146.164 163.087 144.676L163.086 144.657C162.982 143.17 163.239 141.856 163.858 140.716C164.476 139.57 165.394 138.658 166.613 137.979C167.831 137.293 169.288 136.891 170.983 136.772C172.685 136.653 174.186 136.849 175.488 137.358C176.796 137.86 177.832 138.636 178.597 139.686C179.369 140.728 179.806 141.993 179.91 143.48L179.911 143.5C180.015 144.987 179.758 146.304 179.14 147.45C178.528 148.589 177.61 149.502 176.385 150.188C175.167 150.874 173.707 151.276 172.005 151.395ZM171.879 149.583C173.158 149.493 174.253 149.192 175.163 148.678C176.08 148.157 176.769 147.466 177.231 146.605C177.693 145.743 177.885 144.758 177.807 143.647L177.806 143.628C177.728 142.51 177.4 141.561 176.824 140.779C176.246 139.991 175.468 139.405 174.488 139.024C173.515 138.641 172.389 138.495 171.11 138.584C169.843 138.673 168.752 138.974 167.835 139.489C166.924 140.003 166.235 140.691 165.767 141.552C165.304 142.407 165.112 143.393 165.19 144.51L165.192 144.529C165.269 145.64 165.597 146.589 166.174 147.378C166.751 148.166 167.527 148.755 168.5 149.144C169.48 149.525 170.606 149.672 171.879 149.583ZM190.671 150.09C189.138 150.197 187.808 150.029 186.681 149.586C185.56 149.142 184.676 148.453 184.03 147.519C183.383 146.579 183.012 145.427 182.917 144.063L182.371 136.26L184.427 136.116L184.966 143.832C185.037 144.845 185.299 145.698 185.752 146.391C186.205 147.077 186.831 147.584 187.631 147.914C188.436 148.236 189.408 148.357 190.544 148.278C191.674 148.199 192.612 147.944 193.359 147.513C194.112 147.075 194.664 146.485 195.017 145.743C195.369 144.994 195.51 144.113 195.439 143.099L194.899 135.384L196.965 135.239L197.51 143.043C197.606 144.406 197.399 145.599 196.889 146.62C196.379 147.635 195.597 148.44 194.542 149.036C193.488 149.632 192.197 149.983 190.671 150.09ZM201.455 149.052L200.472 134.994L209.171 134.386C210.165 134.316 211.038 134.432 211.79 134.731C212.541 135.025 213.134 135.473 213.567 136.076C214.008 136.678 214.258 137.411 214.318 138.275L214.32 138.294C214.391 139.314 214.182 140.196 213.692 140.942C213.209 141.681 212.477 142.231 211.497 142.593L215.464 148.072L213.038 148.242L209.344 143.018C209.325 143.019 209.305 143.021 209.286 143.022C209.266 143.023 209.243 143.025 209.217 143.027L203.129 143.452L203.51 148.908L201.455 149.052ZM203.011 141.767L209.519 141.312C210.434 141.248 211.126 140.975 211.595 140.491C212.07 140.001 212.278 139.341 212.22 138.509L212.219 138.49C212.163 137.685 211.856 137.076 211.298 136.665C210.747 136.247 210.01 136.07 209.088 136.134L202.649 136.584L203.011 141.767ZM222.556 147.576L228.616 133.026L230.301 132.908L230.446 134.974L229.832 135.016L224.747 147.423L222.556 147.576ZM225.312 143.458L225.997 141.765L234.667 141.159L235.561 142.741L225.312 143.458ZM236.672 146.589L229.91 135.011L229.765 132.946L230.847 132.87L238.873 146.435L236.672 146.589ZM247.933 146.085C246.459 146.189 245.185 146.118 244.11 145.873C243.036 145.628 242.176 145.225 241.529 144.663C240.883 144.102 240.472 143.4 240.296 142.557L240.268 142.441L242.343 142.296L242.37 142.402C242.534 142.887 242.849 143.285 243.315 143.599C243.78 143.906 244.399 144.12 245.171 144.242C245.943 144.365 246.868 144.388 247.946 144.313C248.875 144.248 249.664 144.095 250.313 143.853C250.968 143.612 251.458 143.297 251.784 142.909C252.115 142.52 252.264 142.076 252.229 141.576L252.228 141.566C252.183 140.923 251.896 140.454 251.366 140.158C250.836 139.862 249.943 139.689 248.687 139.64L245.344 139.571C243.662 139.505 242.399 139.186 241.557 138.612C240.72 138.037 240.263 137.198 240.186 136.094L240.186 136.084C240.127 135.24 240.338 134.491 240.821 133.837C241.304 133.183 242.015 132.654 242.952 132.249C243.89 131.844 245.014 131.596 246.326 131.504C247.703 131.408 248.903 131.487 249.926 131.742C250.949 131.996 251.771 132.409 252.391 132.979C253.018 133.549 253.42 134.251 253.596 135.087L253.622 135.184L251.547 135.329L251.521 135.233C251.329 134.73 251.02 134.325 250.594 134.015C250.174 133.698 249.617 133.48 248.923 133.358C248.235 133.23 247.401 133.201 246.42 133.269C245.518 133.332 244.751 133.477 244.121 133.704C243.491 133.931 243.015 134.228 242.695 134.597C242.381 134.958 242.241 135.382 242.275 135.869L242.276 135.879C242.318 136.477 242.6 136.923 243.123 137.22C243.653 137.509 244.5 137.675 245.664 137.717L249.017 137.787C250.195 137.835 251.165 137.989 251.928 138.249C252.69 138.509 253.265 138.889 253.652 139.391C254.04 139.892 254.26 140.52 254.312 141.273L254.313 141.283C254.377 142.199 254.169 143 253.688 143.686C253.207 144.366 252.482 144.912 251.512 145.326C250.542 145.733 249.349 145.986 247.933 146.085ZM264.163 144.951C262.689 145.054 261.415 144.983 260.34 144.738C259.266 144.494 258.406 144.09 257.759 143.529C257.113 142.967 256.702 142.265 256.525 141.422L256.498 141.306L258.573 141.161L258.6 141.267C258.764 141.752 259.079 142.151 259.545 142.464C260.01 142.771 260.629 142.985 261.401 143.107C262.173 143.23 263.098 143.253 264.176 143.178C265.105 143.113 265.894 142.96 266.543 142.719C267.198 142.477 267.688 142.162 268.014 141.774C268.345 141.385 268.494 140.941 268.459 140.441L268.458 140.431C268.413 139.788 268.126 139.319 267.596 139.023C267.066 138.727 266.173 138.555 264.917 138.505L261.574 138.436C259.892 138.371 258.629 138.051 257.787 137.477C256.95 136.902 256.493 136.063 256.416 134.959L256.415 134.949C256.356 134.105 256.568 133.356 257.051 132.702C257.534 132.048 258.244 131.519 259.182 131.114C260.12 130.709 261.244 130.461 262.556 130.369C263.933 130.273 265.133 130.352 266.156 130.607C267.179 130.861 268 131.274 268.621 131.844C269.248 132.414 269.65 133.116 269.826 133.953L269.852 134.049L267.777 134.194L267.751 134.098C267.559 133.596 267.25 133.19 266.824 132.88C266.404 132.564 265.847 132.345 265.153 132.224C264.465 132.095 263.631 132.066 262.65 132.134C261.748 132.197 260.981 132.342 260.351 132.569C259.721 132.796 259.245 133.093 258.925 133.462C258.611 133.823 258.471 134.247 258.505 134.734L258.506 134.744C258.548 135.342 258.83 135.789 259.353 136.085C259.883 136.374 260.73 136.54 261.894 136.583L265.247 136.652C266.425 136.7 267.395 136.854 268.158 137.114C268.92 137.374 269.495 137.754 269.882 138.256C270.27 138.758 270.49 139.385 270.542 140.138L270.543 140.148C270.607 141.064 270.399 141.865 269.918 142.551C269.437 143.231 268.712 143.778 267.742 144.191C266.772 144.598 265.579 144.852 264.163 144.951ZM273.681 144.001L272.698 129.944L284.914 129.089L285.037 130.843L274.876 131.553L275.175 135.83L284.663 135.167L284.782 136.862L275.293 137.525L275.614 142.104L285.774 141.393L285.897 143.147L273.681 144.001ZM294.217 142.565L293.358 130.281L287.279 130.706L287.155 128.933L301.368 127.939L301.492 129.712L295.423 130.136L296.282 142.421L294.217 142.565Z" fill="white"/>
<path d="M336.205 122.588L333.991 130.033L326.927 133.261L334.372 135.474L337.6 142.539L339.813 135.094L346.878 131.866L339.433 129.652L336.205 122.588Z" fill="#FFDE59"/>
<path d="M373.071 137.051L372.088 122.994L374.533 122.823L381.644 134.073L381.732 134.067L387.198 121.937L389.652 121.765L390.635 135.823L388.677 135.96L387.912 125.02L387.026 125.082L388.884 122.534L382.667 136.38L381.02 136.495L372.936 123.649L375.141 125.913L374.254 125.975L375.019 136.915L373.071 137.051ZM393.042 135.655L399.102 121.105L400.787 120.987L400.932 123.052L400.318 123.095L395.234 135.501L393.042 135.655ZM395.798 131.536L396.483 129.844L405.153 129.237L406.047 130.82L395.798 131.536ZM407.158 134.667L400.396 123.089L400.252 121.024L401.333 120.949L409.359 134.514L407.158 134.667ZM413.036 129.42L412.839 126.879L413.375 126.842L421.538 119.536L424.46 119.331L416.585 126.265L416.277 126.482L413.036 129.42ZM411.766 134.345L410.783 120.288L412.838 120.144L413.821 134.202L411.766 134.345ZM423.105 133.552L415.306 126.883L416.746 125.49L425.901 133.357L423.105 133.552ZM428.21 133.195L427.227 119.138L439.443 118.284L439.566 120.037L429.405 120.748L429.704 125.024L439.192 124.361L439.311 126.056L429.822 126.719L430.143 131.298L440.303 130.588L440.426 132.341L428.21 133.195ZM450.348 126.811L450.15 124.27L450.686 124.233L458.849 116.927L461.771 116.722L453.896 123.656L453.588 123.873L450.348 126.811ZM449.077 131.736L448.094 117.679L450.149 117.535L451.132 131.592L449.077 131.736ZM460.416 130.943L452.618 124.274L454.057 122.881L463.212 130.748L460.416 130.943ZM465.521 130.586L464.538 116.529L466.593 116.385L467.576 130.443L465.521 130.586ZM471.113 130.195L470.13 116.138L472.059 116.003L484.832 127.601L482.542 126.479L483.486 126.413L482.706 115.258L484.733 115.117L485.716 129.174L483.767 129.31L471.012 117.701L473.294 118.834L472.349 118.9L473.129 130.054L471.113 130.195ZM489.233 128.928L488.25 114.871L495.683 114.351C497.306 114.237 498.706 114.417 499.881 114.89C501.056 115.362 501.976 116.101 502.64 117.105C503.304 118.109 503.687 119.345 503.79 120.813L503.791 120.832C503.895 122.313 503.688 123.6 503.17 124.694C502.653 125.787 501.845 126.653 500.748 127.291C499.657 127.922 498.296 128.294 496.666 128.408L489.233 128.928ZM491.164 127.012L496.415 126.644C497.636 126.559 498.651 126.286 499.461 125.824C500.271 125.363 500.862 124.728 501.237 123.919C501.617 123.102 501.768 122.132 501.689 121.009L501.688 120.989C501.609 119.866 501.328 118.929 500.845 118.18C500.362 117.424 499.683 116.874 498.811 116.531C497.945 116.18 496.901 116.048 495.68 116.133L490.429 116.5L491.164 127.012ZM507.255 127.668L506.272 113.611L508.201 113.476L520.975 125.074L518.684 123.952L519.629 123.885L518.849 112.731L520.875 112.589L521.858 126.647L519.91 126.783L507.155 115.174L509.437 116.307L508.492 116.373L509.272 127.527L507.255 127.668ZM525.375 126.401L524.392 112.343L536.608 111.489L536.731 113.243L526.57 113.953L526.869 118.23L536.358 117.566L536.476 119.262L526.988 119.925L527.308 124.504L537.468 123.793L537.591 125.547L525.375 126.401ZM547.421 125.143C545.947 125.246 544.672 125.176 543.598 124.931C542.524 124.686 541.663 124.283 541.017 123.721C540.371 123.159 539.959 122.457 539.783 121.615L539.755 121.499L541.83 121.354L541.857 121.46C542.022 121.944 542.337 122.343 542.803 122.657C543.268 122.963 543.886 123.178 544.659 123.3C545.431 123.422 546.356 123.446 547.434 123.37C548.363 123.305 549.151 123.152 549.8 122.911C550.456 122.67 550.946 122.355 551.271 121.967C551.603 121.578 551.751 121.133 551.716 120.633L551.716 120.624C551.671 119.981 551.383 119.511 550.854 119.216C550.324 118.92 549.431 118.747 548.174 118.698L544.831 118.628C543.149 118.563 541.887 118.244 541.044 117.669C540.208 117.095 539.751 116.256 539.674 115.151L539.673 115.142C539.614 114.297 539.826 113.548 540.309 112.895C540.792 112.241 541.502 111.712 542.44 111.307C543.377 110.902 544.502 110.653 545.814 110.562C547.191 110.465 548.391 110.545 549.413 110.799C550.436 111.054 551.258 111.467 551.879 112.037C552.506 112.606 552.908 113.309 553.083 114.145L553.11 114.241L551.035 114.386L551.008 114.29C550.817 113.788 550.508 113.382 550.081 113.073C549.661 112.756 549.104 112.537 548.41 112.416C547.723 112.288 546.889 112.258 545.908 112.327C545.005 112.39 544.239 112.535 543.608 112.762C542.978 112.989 542.503 113.286 542.183 113.654C541.869 114.016 541.729 114.44 541.763 114.927L541.763 114.937C541.805 115.534 542.088 115.981 542.611 116.277C543.14 116.567 543.987 116.733 545.152 116.775L548.505 116.844C549.683 116.892 550.653 117.046 551.415 117.306C552.177 117.566 552.752 117.947 553.14 118.449C553.527 118.95 553.747 119.578 553.8 120.331L553.801 120.341C553.865 121.257 553.656 122.058 553.176 122.744C552.695 123.424 551.969 123.97 551 124.384C550.03 124.791 548.837 125.044 547.421 125.143ZM563.651 124.008C562.176 124.111 560.902 124.041 559.828 123.796C558.753 123.551 557.893 123.148 557.247 122.586C556.601 122.025 556.189 121.322 556.013 120.48L555.985 120.364L558.06 120.219L558.087 120.325C558.252 120.809 558.567 121.208 559.032 121.522C559.498 121.829 560.116 122.043 560.889 122.165C561.661 122.287 562.586 122.311 563.664 122.236C564.593 122.171 565.381 122.018 566.03 121.776C566.685 121.535 567.176 121.22 567.501 120.832C567.833 120.443 567.981 119.999 567.946 119.498L567.946 119.489C567.901 118.846 567.613 118.376 567.084 118.081C566.554 117.785 565.661 117.612 564.404 117.563L561.061 117.493C559.379 117.428 558.117 117.109 557.274 116.535C556.438 115.96 555.981 115.121 555.904 114.017L555.903 114.007C555.844 113.163 556.056 112.414 556.539 111.76C557.022 111.106 557.732 110.577 558.67 110.172C559.607 109.767 560.732 109.518 562.044 109.427C563.421 109.33 564.62 109.41 565.643 109.664C566.666 109.919 567.488 110.332 568.109 110.902C568.736 111.471 569.137 112.174 569.313 113.01L569.34 113.106L567.265 113.252L567.238 113.155C567.047 112.653 566.738 112.247 566.311 111.938C565.891 111.621 565.334 111.403 564.64 111.281C563.953 111.153 563.118 111.123 562.138 111.192C561.235 111.255 560.469 111.4 559.838 111.627C559.208 111.854 558.733 112.151 558.413 112.52C558.099 112.881 557.959 113.305 557.993 113.792L557.993 113.802C558.035 114.399 558.318 114.846 558.841 115.143C559.37 115.432 560.217 115.598 561.382 115.64L564.735 115.709C565.913 115.758 566.883 115.912 567.645 116.172C568.407 116.432 568.982 116.812 569.37 117.314C569.757 117.815 569.977 118.443 570.03 119.196L570.031 119.206C570.095 120.122 569.886 120.923 569.406 121.609C568.924 122.289 568.199 122.835 567.23 123.249C566.26 123.656 565.067 123.909 563.651 124.008ZM584.235 122.285L583.841 116.645L576.608 108.692L579.034 108.523L584.699 114.783L584.787 114.777L589.535 107.788L591.961 107.619L585.906 116.5L586.3 122.141L584.235 122.285ZM601.956 121.33C600.254 121.449 598.752 121.254 597.451 120.744C596.149 120.235 595.113 119.459 594.341 118.416C593.576 117.367 593.142 116.099 593.038 114.611L593.036 114.592C592.932 113.105 593.189 111.791 593.808 110.651C594.426 109.505 595.345 108.593 596.563 107.913C597.781 107.228 599.238 106.826 600.933 106.707C602.635 106.588 604.136 106.784 605.438 107.293C606.746 107.795 607.782 108.571 608.548 109.621C609.319 110.663 609.756 111.928 609.86 113.415L609.862 113.435C609.966 114.922 609.709 116.239 609.09 117.385C608.478 118.524 607.56 119.437 606.335 120.123C605.117 120.809 603.657 121.211 601.956 121.33ZM601.829 119.518C603.108 119.428 604.203 119.127 605.114 118.613C606.03 118.092 606.719 117.401 607.181 116.54C607.643 115.678 607.835 114.693 607.757 113.582L607.756 113.562C607.678 112.445 607.351 111.496 606.774 110.714C606.197 109.925 605.418 109.34 604.439 108.958C603.466 108.576 602.339 108.43 601.06 108.519C599.793 108.608 598.702 108.909 597.785 109.424C596.875 109.938 596.185 110.626 595.717 111.487C595.254 112.342 595.062 113.328 595.14 114.445L595.142 114.464C595.219 115.575 595.547 116.524 596.124 117.313C596.701 118.101 597.477 118.69 598.45 119.079C599.43 119.46 600.556 119.607 601.829 119.518ZM620.621 120.025C619.088 120.132 617.758 119.964 616.631 119.52C615.51 119.077 614.626 118.388 613.98 117.454C613.334 116.514 612.963 115.362 612.867 113.998L612.322 106.195L614.377 106.051L614.917 113.767C614.988 114.78 615.249 115.633 615.703 116.325C616.155 117.012 616.781 117.519 617.581 117.849C618.387 118.171 619.358 118.292 620.494 118.213C621.624 118.134 622.563 117.879 623.309 117.448C624.062 117.01 624.614 116.42 624.967 115.678C625.319 114.929 625.46 114.047 625.389 113.034L624.85 105.319L626.915 105.174L627.461 112.978C627.556 114.341 627.349 115.534 626.839 116.555C626.33 117.57 625.547 118.375 624.492 118.971C623.438 119.567 622.147 119.918 620.621 120.025ZM631.405 118.987L630.422 104.929L639.121 104.321C640.115 104.251 640.988 104.366 641.74 104.666C642.491 104.96 643.084 105.408 643.518 106.01C643.958 106.613 644.208 107.346 644.269 108.21L644.27 108.229C644.341 109.249 644.132 110.131 643.642 110.877C643.159 111.616 642.427 112.166 641.448 112.528L645.414 118.007L642.988 118.177L639.294 112.953C639.275 112.954 639.255 112.956 639.236 112.957C639.216 112.958 639.194 112.96 639.168 112.962L633.079 113.387L633.46 118.843L631.405 118.987ZM632.961 111.702L639.469 111.247C640.384 111.183 641.077 110.909 641.545 110.426C642.02 109.936 642.229 109.276 642.17 108.444L642.169 108.425C642.113 107.62 641.806 107.011 641.248 106.6C640.697 106.182 639.96 106.005 639.038 106.069L632.599 106.519L632.961 111.702ZM652.506 117.511L658.566 102.961L660.251 102.843L660.396 104.909L659.782 104.951L654.698 117.358L652.506 117.511ZM655.262 113.393L655.947 111.7L664.617 111.094L665.511 112.676L655.262 113.393ZM666.622 116.524L659.86 104.946L659.716 102.881L660.797 102.805L668.823 116.37L666.622 116.524ZM677.884 116.02C676.409 116.123 675.135 116.053 674.061 115.808C672.986 115.563 672.126 115.16 671.48 114.598C670.833 114.037 670.422 113.334 670.246 112.492L670.218 112.376L672.293 112.231L672.32 112.337C672.484 112.822 672.8 113.22 673.265 113.534C673.73 113.841 674.349 114.055 675.121 114.177C675.893 114.3 676.819 114.323 677.897 114.248C678.825 114.183 679.614 114.03 680.263 113.788C680.918 113.547 681.409 113.232 681.734 112.844C682.066 112.455 682.214 112.011 682.179 111.511L682.178 111.501C682.133 110.858 681.846 110.388 681.316 110.093C680.787 109.797 679.893 109.624 678.637 109.575L675.294 109.505C673.612 109.44 672.35 109.121 671.507 108.547C670.67 107.972 670.214 107.133 670.136 106.029L670.136 106.019C670.077 105.175 670.289 104.426 670.772 103.772C671.254 103.118 671.965 102.589 672.902 102.184C673.84 101.779 674.965 101.531 676.277 101.439C677.653 101.342 678.853 101.422 679.876 101.677C680.899 101.931 681.721 102.344 682.341 102.914C682.969 103.483 683.37 104.186 683.546 105.022L683.572 105.118L681.497 105.264L681.471 105.168C681.279 104.665 680.97 104.259 680.544 103.95C680.124 103.633 679.567 103.415 678.873 103.293C678.185 103.165 677.351 103.136 676.371 103.204C675.468 103.267 674.701 103.412 674.071 103.639C673.441 103.866 672.966 104.163 672.646 104.532C672.331 104.893 672.191 105.317 672.225 105.804L672.226 105.814C672.268 106.411 672.55 106.858 673.074 107.155C673.603 107.444 674.45 107.61 675.615 107.652L678.967 107.721C680.146 107.77 681.116 107.924 681.878 108.184C682.64 108.444 683.215 108.824 683.602 109.326C683.99 109.827 684.21 110.455 684.263 111.208L684.263 111.218C684.327 112.134 684.119 112.935 683.638 113.621C683.157 114.301 682.432 114.847 681.462 115.261C680.492 115.668 679.299 115.921 677.884 116.02ZM694.113 114.885C692.639 114.989 691.365 114.918 690.29 114.673C689.216 114.428 688.356 114.025 687.71 113.463C687.063 112.902 686.652 112.2 686.476 111.357L686.448 111.241L688.523 111.096L688.55 111.202C688.714 111.687 689.029 112.086 689.495 112.399C689.96 112.706 690.579 112.92 691.351 113.042C692.123 113.165 693.048 113.188 694.127 113.113C695.055 113.048 695.844 112.895 696.493 112.654C697.148 112.412 697.638 112.097 697.964 111.709C698.295 111.32 698.444 110.876 698.409 110.376L698.408 110.366C698.363 109.723 698.076 109.254 697.546 108.958C697.016 108.662 696.123 108.489 694.867 108.44L691.524 108.371C689.842 108.305 688.58 107.986 687.737 107.412C686.9 106.837 686.444 105.998 686.366 104.894L686.366 104.884C686.307 104.04 686.519 103.291 687.001 102.637C687.484 101.983 688.195 101.454 689.132 101.049C690.07 100.644 691.195 100.396 692.506 100.304C693.883 100.208 695.083 100.287 696.106 100.542C697.129 100.796 697.951 101.209 698.571 101.779C699.199 102.349 699.6 103.051 699.776 103.888L699.802 103.984L697.727 104.129L697.701 104.033C697.509 103.53 697.2 103.125 696.774 102.815C696.354 102.499 695.797 102.28 695.103 102.158C694.415 102.03 693.581 102.001 692.6 102.069C691.698 102.132 690.931 102.277 690.301 102.504C689.671 102.731 689.196 103.028 688.875 103.397C688.561 103.758 688.421 104.182 688.455 104.669L688.456 104.679C688.498 105.277 688.78 105.723 689.304 106.02C689.833 106.309 690.68 106.475 691.844 106.518L695.197 106.587C696.375 106.635 697.346 106.789 698.108 107.049C698.87 107.309 699.445 107.689 699.832 108.191C700.22 108.692 700.44 109.32 700.493 110.073L700.493 110.083C700.557 110.999 700.349 111.8 699.868 112.486C699.387 113.166 698.662 113.712 697.692 114.126C696.722 114.533 695.529 114.786 694.113 114.885ZM703.631 113.936L702.648 99.8786L714.864 99.0243L714.987 100.778L704.826 101.488L705.125 105.765L714.614 105.102L714.732 106.797L705.244 107.46L705.564 112.039L715.725 111.328L715.847 113.082L703.631 113.936ZM724.167 112.5L723.308 100.216L717.229 100.641L717.105 98.8677L731.318 97.8738L731.442 99.6468L725.373 100.071L726.232 112.356L724.167 112.5Z" fill="white"/>
<g clip-path="url(#clip0_164_41)">
<path d="M766.401 96.0393C762.839 96.2883 760.145 99.3883 760.394 102.95C760.643 106.511 763.743 109.206 767.304 108.957C770.865 108.708 773.56 105.608 773.311 102.046C773.062 98.485 769.962 95.7902 766.401 96.0393ZM769.767 102.294L767.056 105.412L763.938 102.702L766.649 99.5838L769.767 102.294Z" fill="#0EACC7"/>
<path d="M773.413 94.951C771.397 93.1986 768.819 92.3361 766.155 92.5225C763.49 92.7088 761.058 93.9216 759.305 95.9375C757.553 97.9534 756.69 100.531 756.877 103.196C757.063 105.86 758.276 108.293 760.292 110.045C762.308 111.798 764.885 112.66 767.55 112.474C770.215 112.287 772.647 111.075 774.4 109.059C776.152 107.043 777.014 104.465 776.828 101.801C776.642 99.136 775.429 96.7034 773.413 94.951ZM767.386 110.126C763.18 110.42 759.519 107.238 759.225 103.031C758.93 98.8255 762.113 95.1644 766.319 94.8702C770.525 94.5761 774.186 97.7587 774.48 101.965C774.774 106.171 771.592 109.832 767.386 110.126Z" fill="#0EACC7"/>
</g>
<path d="M803.021 106.986L802.038 92.9286L804.483 92.7576L811.594 104.008L811.682 104.002L817.148 91.872L819.603 91.7004L820.586 105.758L818.628 105.895L817.863 94.9547L816.976 95.0167L818.834 92.4687L812.617 106.315L810.97 106.43L802.887 93.5839L805.091 95.8478L804.204 95.9097L804.969 106.85L803.021 106.986ZM822.992 105.59L829.052 91.0396L830.738 90.9217L830.882 92.987L830.268 93.0299L825.184 105.436L822.992 105.59ZM825.748 101.471L826.433 99.7788L835.103 99.1725L835.997 100.755L825.748 101.471ZM837.108 104.602L830.346 93.0245L830.202 90.9592L831.283 90.8836L839.309 104.449L837.108 104.602ZM842.987 99.3554L842.789 96.8142L843.325 96.7767L851.488 89.4707L854.41 89.2664L846.535 96.1998L846.227 96.4171L842.987 99.3554ZM841.716 104.28L840.733 90.2228L842.788 90.0791L843.771 104.137L841.716 104.28ZM853.055 103.487L845.257 96.8178L846.696 95.425L855.851 103.292L853.055 103.487ZM858.16 103.13L857.177 89.0729L869.393 88.2187L869.516 89.9722L859.355 90.6827L859.654 94.9594L869.143 94.2959L869.261 95.991L859.773 96.6545L860.093 101.233L870.254 100.523L870.376 102.276L858.16 103.13ZM880.298 96.7464L880.101 94.2051L880.636 94.1676L888.799 86.8617L891.721 86.6573L883.846 93.5908L883.538 93.8081L880.298 96.7464ZM879.027 101.671L878.044 87.6138L880.099 87.47L881.082 101.527L879.027 101.671ZM890.366 100.878L882.568 94.2088L884.007 92.8159L893.162 100.683L890.366 100.878ZM895.471 100.521L894.488 86.4639L896.544 86.3201L897.527 100.378L895.471 100.521ZM901.063 100.13L900.08 86.0728L902.009 85.938L914.783 97.5361L912.492 96.4139L913.437 96.3478L912.657 85.1934L914.683 85.0517L915.666 99.1092L913.718 99.2454L900.963 87.6362L903.244 88.7688L902.3 88.8349L903.08 99.9893L901.063 100.13ZM919.183 98.8633L918.2 84.8058L925.633 84.286C927.256 84.1725 928.656 84.352 929.831 84.8246C931.006 85.2971 931.926 86.0355 932.59 87.0398C933.254 88.0441 933.637 89.2802 933.74 90.7479L933.741 90.7674C933.845 92.2482 933.638 93.5353 933.121 94.6287C932.603 95.7222 931.796 96.5879 930.698 97.2259C929.607 97.857 928.246 98.2295 926.616 98.3435L919.183 98.8633ZM921.114 96.9465L926.365 96.5793C927.586 96.4939 928.601 96.2206 929.411 95.7594C930.221 95.2981 930.813 94.6629 931.187 93.8535C931.567 93.0373 931.718 92.0674 931.639 90.9438L931.638 90.9243C931.559 89.8008 931.278 88.8643 930.795 88.1149C930.312 87.359 929.634 86.8093 928.761 86.4657C927.895 86.1151 926.851 85.9825 925.63 86.0679L920.379 86.4351L921.114 96.9465ZM937.205 97.603L936.222 83.5455L938.151 83.4107L950.925 95.0088L948.634 93.8866L949.579 93.8205L948.799 82.6661L950.825 82.5244L951.808 96.5819L949.86 96.7181L937.105 85.1089L939.387 86.2415L938.442 86.3076L939.222 97.462L937.205 97.603ZM955.325 96.3359L954.342 82.2785L966.558 81.4242L966.681 83.1778L956.52 83.8883L956.819 88.1649L966.308 87.5014L966.426 89.1965L956.938 89.86L957.258 94.4387L967.419 93.7282L967.541 95.4817L955.325 96.3359ZM977.371 95.0782C975.897 95.1813 974.622 95.1105 973.548 94.8659C972.474 94.6212 971.613 94.218 970.967 93.6562C970.321 93.0945 969.91 92.3923 969.733 91.5497L969.706 91.4341L971.781 91.289L971.808 91.3948C971.972 91.8793 972.287 92.2783 972.753 92.5916C973.218 92.8984 973.837 93.113 974.609 93.2352C975.381 93.3574 976.306 93.3808 977.384 93.3054C978.313 93.2405 979.102 93.0874 979.75 92.8463C980.406 92.6047 980.896 92.2897 981.221 91.9015C981.553 91.5128 981.702 91.0685 981.667 90.5684L981.666 90.5586C981.621 89.9157 981.334 89.4463 980.804 89.1505C980.274 88.8547 979.381 88.6822 978.124 88.633L974.781 88.5633C973.1 88.4982 971.837 88.1786 970.994 87.6044C970.158 87.0299 969.701 86.1906 969.624 85.0865L969.623 85.0767C969.564 84.2325 969.776 83.4834 970.259 82.8297C970.742 82.1759 971.452 81.6465 972.39 81.2416C973.327 80.8367 974.452 80.5883 975.764 80.4966C977.141 80.4003 978.341 80.4796 979.364 80.7344C980.386 80.9892 981.208 81.4016 981.829 81.9717C982.456 82.5413 982.858 83.2441 983.034 84.0803L983.06 84.1763L980.985 84.3214L980.959 84.2254C980.767 83.7232 980.458 83.3173 980.032 83.0078C979.611 82.6913 979.054 82.4724 978.361 82.3512C977.673 82.2231 976.839 82.1933 975.858 82.2619C974.955 82.325 974.189 82.47 973.559 82.6968C972.928 82.9236 972.453 83.2212 972.133 83.5895C971.819 83.9508 971.679 84.375 971.713 84.8621L971.714 84.8718C971.755 85.4693 972.038 85.9162 972.561 86.2125C973.09 86.5018 973.937 86.6677 975.102 86.7103L978.455 86.7793C979.633 86.8274 980.603 86.9815 981.365 87.2414C982.128 87.5014 982.702 87.8822 983.09 88.3837C983.477 88.8852 983.697 89.5127 983.75 90.2661L983.751 90.2758C983.815 91.1915 983.607 91.9925 983.126 92.6788C982.645 93.3585 981.919 93.9052 980.95 94.3189C979.98 94.7261 978.787 94.9792 977.371 95.0782ZM993.601 93.9433C992.127 94.0464 990.852 93.9756 989.778 93.731C988.704 93.4863 987.843 93.0831 987.197 92.5213C986.551 91.9596 986.14 91.2574 985.963 90.4148L985.936 90.2992L988.011 90.1541L988.037 90.2599C988.202 90.7444 988.517 91.1434 988.983 91.4567C989.448 91.7635 990.067 91.978 990.839 92.1003C991.611 92.2225 992.536 92.2459 993.614 92.1705C994.543 92.1056 995.332 91.9525 995.98 91.7114C996.636 91.4697 997.126 91.1548 997.451 90.7666C997.783 90.3779 997.931 89.9336 997.896 89.4335L997.896 89.4237C997.851 88.7808 997.563 88.3114 997.034 88.0156C996.504 87.7198 995.611 87.5473 994.354 87.4981L991.011 87.4284C989.329 87.3633 988.067 87.0437 987.224 86.4695C986.388 85.895 985.931 85.0557 985.854 83.9516L985.853 83.9418C985.794 83.0975 986.006 82.3485 986.489 81.6947C986.972 81.041 987.682 80.5116 988.62 80.1067C989.557 79.7018 990.682 79.4534 991.994 79.3617C993.371 79.2654 994.571 79.3447 995.594 79.5995C996.616 79.8543 997.438 80.2667 998.059 80.8368C998.686 81.4064 999.088 82.1092 999.264 82.9454L999.29 83.0414L997.215 83.1865L997.189 83.0905C996.997 82.5883 996.688 82.1824 996.262 81.8729C995.841 81.5563 995.284 81.3375 994.591 81.2163C993.903 81.0882 993.069 81.0584 992.088 81.127C991.185 81.1901 990.419 81.3351 989.789 81.5619C989.158 81.7887 988.683 82.0863 988.363 82.4545C988.049 82.8159 987.909 83.2401 987.943 83.7272L987.944 83.7369C987.985 84.3344 988.268 84.7813 988.791 85.0776C989.32 85.3669 990.167 85.5328 991.332 85.5754L994.685 85.6444C995.863 85.6925 996.833 85.8466 997.595 86.1065C998.357 86.3665 998.932 86.7473 999.32 87.2488C999.707 87.7503 999.927 88.3778 999.98 89.1311L999.981 89.1409C1000.04 90.0566 999.836 90.8576 999.356 91.5439C998.875 92.2236 998.149 92.7703 997.18 93.184C996.21 93.5912 995.017 93.8443 993.601 93.9433ZM1014.19 92.22L1013.79 86.5795L1006.56 78.6272L1008.98 78.4575L1014.65 84.7182L1014.74 84.7121L1019.49 77.7232L1021.91 77.5536L1015.86 86.4351L1016.25 92.0756L1014.19 92.22ZM1031.91 91.2648C1030.2 91.3838 1028.7 91.1886 1027.4 90.6792C1026.1 90.1698 1025.06 89.3938 1024.29 88.3513C1023.53 87.3019 1023.09 86.0335 1022.99 84.5463L1022.99 84.5268C1022.88 83.0396 1023.14 81.7261 1023.76 80.5864C1024.38 79.4402 1025.29 78.5276 1026.51 77.8485C1027.73 77.1629 1029.19 76.7608 1030.88 76.6423C1032.58 76.5233 1034.09 76.7185 1035.39 77.2279C1036.7 77.7303 1037.73 78.5063 1038.5 79.5557C1039.27 80.5982 1039.71 81.8631 1039.81 83.3504L1039.81 83.3698C1039.92 84.8571 1039.66 86.1738 1039.04 87.32C1038.43 88.4592 1037.51 89.3718 1036.29 90.0579C1035.07 90.7435 1033.61 91.1458 1031.91 91.2648ZM1031.78 89.4528C1033.06 89.3633 1034.15 89.0616 1035.06 88.5476C1035.98 88.0267 1036.67 87.3357 1037.13 86.4745C1037.59 85.6134 1037.79 84.6275 1037.71 83.517L1037.71 83.4975C1037.63 82.3804 1037.3 81.4309 1036.72 80.6489C1036.15 79.8604 1035.37 79.2753 1034.39 78.8935C1033.42 78.5112 1032.29 78.3648 1031.01 78.4543C1029.74 78.5428 1028.65 78.8443 1027.74 79.3587C1026.82 79.8727 1026.14 80.5605 1025.67 81.4221C1025.2 82.2767 1025.01 83.2626 1025.09 84.3797L1025.09 84.3992C1025.17 85.5097 1025.5 86.4592 1026.07 87.2477C1026.65 88.0362 1027.43 88.6248 1028.4 89.0136C1029.38 89.3954 1030.51 89.5418 1031.78 89.4528ZM1050.57 89.9596C1049.04 90.0668 1047.71 89.8987 1046.58 89.4554C1045.46 89.0117 1044.58 88.323 1043.93 87.3892C1043.28 86.4489 1042.91 85.2969 1042.82 83.933L1042.27 76.1298L1044.33 75.9861L1044.87 83.7016C1044.94 84.7148 1045.2 85.5677 1045.65 86.2605C1046.11 86.9467 1046.73 87.4544 1047.53 87.7835C1048.34 88.1057 1049.31 88.2271 1050.44 88.1476C1051.57 88.0686 1052.51 87.8137 1053.26 87.383C1054.01 86.9453 1054.56 86.3552 1054.92 85.6126C1055.27 84.8636 1055.41 83.9825 1055.34 82.9693L1054.8 75.2538L1056.87 75.1094L1057.41 82.9126C1057.51 84.2764 1057.3 85.4689 1056.79 86.49C1056.28 87.5046 1055.5 88.3098 1054.44 88.9057C1053.39 89.5016 1052.1 89.8529 1050.57 89.9596ZM1061.36 88.9216L1060.37 74.8641L1069.07 74.2558C1070.07 74.1863 1070.94 74.3015 1071.69 74.6013C1072.44 74.8947 1073.03 75.3427 1073.47 75.9454C1073.91 76.5477 1074.16 77.2807 1074.22 78.1445L1074.22 78.164C1074.29 79.1836 1074.08 80.0663 1073.59 80.8119C1073.11 81.5505 1072.38 82.1009 1071.4 82.4631L1075.36 87.942L1072.94 88.1116L1069.24 82.8878C1069.23 82.8892 1069.21 82.8905 1069.19 82.8919C1069.17 82.8933 1069.14 82.8949 1069.12 82.8967L1063.03 83.3224L1063.41 88.7779L1061.36 88.9216ZM1062.91 81.6371L1069.42 81.182C1070.33 81.118 1071.03 80.8444 1071.5 80.3613C1071.97 79.8713 1072.18 79.2106 1072.12 78.3793L1072.12 78.3598C1072.06 77.5545 1071.76 76.9462 1071.2 76.5348C1070.65 76.1166 1069.91 75.9397 1068.99 76.0041L1062.55 76.4544L1062.91 81.6371ZM1082.46 87.4461L1088.52 72.8961L1090.2 72.7782L1090.35 74.8435L1089.73 74.8864L1084.65 87.2928L1082.46 87.4461ZM1085.21 83.3277L1085.9 81.6353L1094.57 81.029L1095.46 82.6111L1085.21 83.3277ZM1096.57 86.459L1089.81 74.881L1089.67 72.8157L1090.75 72.7401L1098.77 86.305L1096.57 86.459ZM1107.83 85.9554C1106.36 86.0585 1105.09 85.9877 1104.01 85.743C1102.94 85.4984 1102.08 85.0952 1101.43 84.5334C1100.78 83.9716 1100.37 83.2695 1100.2 82.4268L1100.17 82.3113L1102.24 82.1662L1102.27 82.272C1102.43 82.7565 1102.75 83.1554 1103.22 83.4688C1103.68 83.7756 1104.3 83.9901 1105.07 84.1123C1105.84 84.2346 1106.77 84.258 1107.85 84.1826C1108.78 84.1176 1109.56 83.9646 1110.21 83.7234C1110.87 83.4818 1111.36 83.1669 1111.68 82.7787C1112.02 82.39 1112.16 81.9456 1112.13 81.4455L1112.13 81.4358C1112.08 80.7928 1111.8 80.3235 1111.27 80.0277C1110.74 79.7319 1109.84 79.5594 1108.59 79.5102L1105.24 79.4405C1103.56 79.3753 1102.3 79.0557 1101.46 78.4816C1100.62 77.907 1100.16 77.0677 1100.09 75.9636L1100.09 75.9539C1100.03 75.1096 1100.24 74.3606 1100.72 73.7068C1101.2 73.053 1101.91 72.5237 1102.85 72.1188C1103.79 71.7138 1104.91 71.4655 1106.23 71.3738C1107.6 71.2775 1108.8 71.3567 1109.83 71.6115C1110.85 71.8663 1111.67 72.2788 1112.29 72.8488C1112.92 73.4184 1113.32 74.1213 1113.5 74.9574L1113.52 75.0535L1111.45 75.1986L1111.42 75.1025C1111.23 74.6003 1110.92 74.1945 1110.49 73.8849C1110.07 73.5684 1109.52 73.3496 1108.82 73.2284C1108.14 73.1003 1107.3 73.0705 1106.32 73.1391C1105.42 73.2022 1104.65 73.3472 1104.02 73.574C1103.39 73.8008 1102.92 74.0983 1102.6 74.4666C1102.28 74.8279 1102.14 75.2522 1102.18 75.7393L1102.18 75.749C1102.22 76.3465 1102.5 76.7934 1103.02 77.0896C1103.55 77.3789 1104.4 77.5449 1105.56 77.5874L1108.92 77.6564C1110.1 77.7046 1111.07 77.8586 1111.83 78.1186C1112.59 78.3786 1113.17 78.7593 1113.55 79.2609C1113.94 79.7624 1114.16 80.3898 1114.21 81.1432L1114.21 81.153C1114.28 82.0687 1114.07 82.8697 1113.59 83.5559C1113.11 84.2357 1112.38 84.7824 1111.41 85.1961C1110.44 85.6033 1109.25 85.8564 1107.83 85.9554ZM1124.06 84.8205C1122.59 84.9236 1121.32 84.8528 1120.24 84.6081C1119.17 84.3635 1118.31 83.9603 1117.66 83.3985C1117.01 82.8367 1116.6 82.1346 1116.43 81.2919L1116.4 81.1764L1118.47 81.0313L1118.5 81.1371C1118.66 81.6216 1118.98 82.0205 1119.45 82.3338C1119.91 82.6407 1120.53 82.8552 1121.3 82.9774C1122.07 83.0996 1123 83.1231 1124.08 83.0477C1125.01 82.9827 1125.79 82.8297 1126.44 82.5885C1127.1 82.3469 1127.59 82.032 1127.91 81.6438C1128.25 81.2551 1128.39 80.8107 1128.36 80.3106L1128.36 80.3009C1128.31 79.6579 1128.03 79.1886 1127.5 78.8928C1126.97 78.597 1126.07 78.4245 1124.82 78.3753L1121.47 78.3056C1119.79 78.2404 1118.53 77.9208 1117.69 77.3467C1116.85 76.7721 1116.39 75.9328 1116.32 74.8287L1116.32 74.819C1116.26 73.9747 1116.47 73.2257 1116.95 72.5719C1117.43 71.9181 1118.14 71.3888 1119.08 70.9839C1120.02 70.5789 1121.14 70.3306 1122.46 70.2389C1123.83 70.1426 1125.03 70.2218 1126.06 70.4766C1127.08 70.7314 1127.9 71.1438 1128.52 71.7139C1129.15 72.2835 1129.55 72.9864 1129.73 73.8225L1129.75 73.9186L1127.68 74.0637L1127.65 73.9676C1127.46 73.4654 1127.15 73.0596 1126.72 72.75C1126.3 72.4335 1125.75 72.2147 1125.05 72.0935C1124.37 71.9654 1123.53 71.9356 1122.55 72.0042C1121.65 72.0673 1120.88 72.2123 1120.25 72.4391C1119.62 72.6659 1119.15 72.9634 1118.83 73.3317C1118.51 73.693 1118.37 74.1173 1118.41 74.6043L1118.41 74.6141C1118.45 75.2116 1118.73 75.6585 1119.25 75.9547C1119.78 76.244 1120.63 76.41 1121.79 76.4525L1125.15 76.5215C1126.33 76.5697 1127.3 76.7237 1128.06 76.9837C1128.82 77.2437 1129.39 77.6244 1129.78 78.126C1130.17 78.6275 1130.39 79.2549 1130.44 80.0083L1130.44 80.0181C1130.51 80.9338 1130.3 81.7348 1129.82 82.421C1129.34 83.1008 1128.61 83.6475 1127.64 84.0612C1126.67 84.4684 1125.48 84.7215 1124.06 84.8205ZM1133.58 83.8711L1132.6 69.8136L1144.81 68.9593L1144.94 70.7129L1134.78 71.4234L1135.08 75.7001L1144.56 75.0365L1144.68 76.7316L1135.19 77.3951L1135.51 81.9738L1145.67 81.2633L1145.8 83.0168L1133.58 83.8711ZM1154.12 82.4351L1153.26 70.1506L1147.18 70.5757L1147.06 68.8027L1161.27 67.8088L1161.39 69.5818L1155.32 70.0062L1156.18 82.2906L1154.12 82.4351Z" fill="white"/>
<path d="M1196.1 62.4574L1193.89 69.9027L1186.83 73.1306L1194.27 75.3439L1197.5 82.4087L1199.71 74.9634L1206.78 71.7355L1199.33 69.5222L1196.1 62.4574Z" fill="#FFDE59"/>
<path d="M1232.97 76.921L1231.99 62.8635L1234.43 62.6925L1241.54 73.9427L1241.63 73.9366L1247.1 61.807L1249.55 61.6353L1250.54 75.6928L1248.58 75.8297L1247.81 64.8896L1246.93 64.9516L1248.78 62.4037L1242.57 76.25L1240.92 76.3651L1232.84 63.5188L1235.04 65.7827L1234.15 65.8447L1234.92 76.7848L1232.97 76.921ZM1252.94 75.5245L1259 60.9745L1260.69 60.8567L1260.83 62.9219L1260.22 62.9649L1255.13 75.3712L1252.94 75.5245ZM1255.7 71.4062L1256.38 69.7137L1265.05 69.1074L1265.95 70.6895L1255.7 71.4062ZM1267.06 74.5374L1260.3 62.9594L1260.15 60.8941L1261.23 60.8185L1269.26 74.3835L1267.06 74.5374ZM1272.94 69.2903L1272.74 66.7491L1273.28 66.7116L1281.44 59.4057L1284.36 59.2013L1276.49 66.1348L1276.18 66.3521L1272.94 69.2903ZM1271.67 74.2152L1270.68 60.1577L1272.74 60.014L1273.72 74.0715L1271.67 74.2152ZM1283.01 73.4223L1275.21 66.7528L1276.65 65.3599L1285.8 73.2268L1283.01 73.4223ZM1288.11 73.0653L1287.13 59.0079L1299.34 58.1536L1299.47 59.9071L1289.31 60.6176L1289.6 64.8943L1299.09 64.2308L1299.21 65.9259L1289.72 66.5894L1290.04 71.1681L1300.2 70.4575L1300.33 72.2111L1288.11 73.0653ZM1310.25 66.6813L1310.05 64.14L1310.59 64.1026L1318.75 56.7966L1321.67 56.5923L1313.8 63.5257L1313.49 63.743L1310.25 66.6813ZM1308.98 71.6062L1307.99 57.5487L1310.05 57.405L1311.03 71.4624L1308.98 71.6062ZM1320.32 70.8132L1312.52 64.1437L1313.96 62.7508L1323.11 70.6177L1320.32 70.8132ZM1325.42 70.4563L1324.44 56.3988L1326.49 56.2551L1327.48 70.3125L1325.42 70.4563ZM1331.01 70.0653L1330.03 56.0078L1331.96 55.8729L1344.73 67.471L1342.44 66.3488L1343.39 66.2827L1342.61 55.1283L1344.63 54.9866L1345.62 69.0441L1343.67 69.1804L1330.91 57.5711L1333.19 58.7038L1332.25 58.7698L1333.03 69.9242L1331.01 70.0653ZM1349.13 68.7982L1348.15 54.7407L1355.58 54.221C1357.21 54.1074 1358.61 54.2869 1359.78 54.7595C1360.96 55.2321 1361.88 55.9705 1362.54 56.9748C1363.2 57.9791 1363.59 59.2151 1363.69 60.6829L1363.69 60.7024C1363.8 62.1831 1363.59 63.4702 1363.07 64.5637C1362.55 65.6571 1361.75 66.5228 1360.65 67.1608C1359.56 67.7919 1358.2 68.1644 1356.57 68.2784L1349.13 68.7982ZM1351.06 66.8814L1356.32 66.5143C1357.54 66.4289 1358.55 66.1556 1359.36 65.6943C1360.17 65.2331 1360.76 64.5978 1361.14 63.7885C1361.52 62.9722 1361.67 62.0023 1361.59 60.8787L1361.59 60.8592C1361.51 59.7357 1361.23 58.7992 1360.75 58.0499C1360.26 57.294 1359.58 56.7442 1358.71 56.4006C1357.85 56.05 1356.8 55.9174 1355.58 56.0028L1350.33 56.37L1351.06 66.8814ZM1367.16 67.5379L1366.17 53.4805L1368.1 53.3456L1380.88 64.9437L1378.58 63.8215L1379.53 63.7554L1378.75 52.601L1380.78 52.4593L1381.76 66.5168L1379.81 66.653L1367.06 55.0438L1369.34 56.1764L1368.39 56.2425L1369.17 67.3969L1367.16 67.5379ZM1385.28 66.2709L1384.29 52.2134L1396.51 51.3592L1396.63 53.1127L1386.47 53.8232L1386.77 58.0999L1396.26 57.4364L1396.38 59.1314L1386.89 59.7949L1387.21 64.3736L1397.37 63.6631L1397.49 65.4166L1385.28 66.2709ZM1407.32 65.0132C1405.85 65.1163 1404.57 65.0455 1403.5 64.8008C1402.42 64.5561 1401.56 64.1529 1400.92 63.5912C1400.27 63.0294 1399.86 62.3272 1399.68 61.4846L1399.66 61.3691L1401.73 61.224L1401.76 61.3298C1401.92 61.8143 1402.24 62.2132 1402.7 62.5265C1403.17 62.8334 1403.79 63.0479 1404.56 63.1701C1405.33 63.2923 1406.26 63.3157 1407.33 63.2404C1408.26 63.1754 1409.05 63.0224 1409.7 62.7812C1410.36 62.5396 1410.85 62.2247 1411.17 61.8365C1411.5 61.4478 1411.65 61.0034 1411.62 60.5033L1411.62 60.4936C1411.57 59.8506 1411.28 59.3812 1410.75 59.0854C1410.22 58.7896 1409.33 58.6171 1408.07 58.568L1404.73 58.4983C1403.05 58.4331 1401.79 58.1135 1400.94 57.5394C1400.11 56.9648 1399.65 56.1255 1399.57 55.0214L1399.57 55.0117C1399.51 54.1674 1399.73 53.4184 1400.21 52.7646C1400.69 52.1108 1401.4 51.5815 1402.34 51.1765C1403.28 50.7716 1404.4 50.5233 1405.71 50.4315C1407.09 50.3353 1408.29 50.4145 1409.31 50.6693C1410.34 50.9241 1411.16 51.3365 1411.78 51.9066C1412.41 52.4762 1412.81 53.1791 1412.98 54.0152L1413.01 54.1113L1410.94 54.2564L1410.91 54.1603C1410.72 53.6581 1410.41 53.2523 1409.98 52.9427C1409.56 52.6262 1409 52.4073 1408.31 52.2862C1407.62 52.1581 1406.79 52.1283 1405.81 52.1969C1404.91 52.26 1404.14 52.4049 1403.51 52.6318C1402.88 52.8586 1402.4 53.1561 1402.08 53.5244C1401.77 53.8857 1401.63 54.3099 1401.66 54.797L1401.66 54.8068C1401.71 55.4043 1401.99 55.8511 1402.51 56.1474C1403.04 56.4367 1403.89 56.6026 1405.05 56.6452L1408.41 56.7142C1409.58 56.7624 1410.55 56.9164 1411.32 57.1764C1412.08 57.4363 1412.65 57.8171 1413.04 58.3186C1413.43 58.8202 1413.65 59.4476 1413.7 60.201L1413.7 60.2107C1413.77 61.1265 1413.56 61.9275 1413.08 62.6137C1412.59 63.2934 1411.87 63.8402 1410.9 64.2539C1409.93 64.6611 1408.74 64.9142 1407.32 65.0132ZM1423.55 63.8783C1422.08 63.9814 1420.8 63.9106 1419.73 63.6659C1418.65 63.4212 1417.79 63.018 1417.15 62.4563C1416.5 61.8945 1416.09 61.1923 1415.91 60.3497L1415.89 60.2342L1417.96 60.0891L1417.99 60.1949C1418.15 60.6794 1418.47 61.0783 1418.93 61.3916C1419.4 61.6985 1420.02 61.913 1420.79 62.0352C1421.56 62.1574 1422.49 62.1808 1423.56 62.1054C1424.49 62.0405 1425.28 61.8875 1425.93 61.6463C1426.59 61.4047 1427.08 61.0898 1427.4 60.7015C1427.73 60.3129 1427.88 59.8685 1427.85 59.3684L1427.85 59.3587C1427.8 58.7157 1427.51 58.2463 1426.98 57.9505C1426.45 57.6547 1425.56 57.4822 1424.3 57.4331L1420.96 57.3633C1419.28 57.2982 1418.02 56.9786 1417.17 56.4045C1416.34 55.8299 1415.88 54.9906 1415.8 53.8865L1415.8 53.8768C1415.74 53.0325 1415.96 52.2835 1416.44 51.6297C1416.92 50.9759 1417.63 50.4466 1418.57 50.0416C1419.51 49.6367 1420.63 49.3884 1421.94 49.2966C1423.32 49.2004 1424.52 49.2796 1425.54 49.5344C1426.57 49.7892 1427.39 50.2016 1428.01 50.7717C1428.64 51.3413 1429.04 52.0442 1429.21 52.8803L1429.24 52.9763L1427.17 53.1214L1427.14 53.0254C1426.95 52.5232 1426.64 52.1174 1426.21 51.8078C1425.79 51.4913 1425.23 51.2724 1424.54 51.1513C1423.85 51.0231 1423.02 50.9934 1422.04 51.062C1421.14 51.1251 1420.37 51.27 1419.74 51.4969C1419.11 51.7237 1418.63 52.0212 1418.31 52.3895C1418 52.7508 1417.86 53.175 1417.89 53.6621L1417.89 53.6719C1417.94 54.2694 1418.22 54.7162 1418.74 55.0125C1419.27 55.3018 1420.12 55.4677 1421.28 55.5103L1424.64 55.5793C1425.81 55.6275 1426.78 55.7815 1427.55 56.0415C1428.31 56.3014 1428.88 56.6822 1429.27 57.1837C1429.66 57.6853 1429.88 58.3127 1429.93 59.0661L1429.93 59.0758C1429.99 59.9916 1429.79 60.7925 1429.31 61.4788C1428.82 62.1585 1428.1 62.7053 1427.13 63.119C1426.16 63.5262 1424.97 63.7793 1423.55 63.8783ZM1444.14 62.155L1443.74 56.5145L1436.51 48.5621L1438.93 48.3925L1444.6 54.6532L1444.69 54.647L1449.44 47.6581L1451.86 47.4885L1445.81 56.37L1446.2 62.0106L1444.14 62.155ZM1461.86 61.1997C1460.15 61.3187 1458.65 61.1235 1457.35 60.6141C1456.05 60.1047 1455.01 59.3288 1454.24 58.2863C1453.48 57.2368 1453.04 55.9685 1452.94 54.4812L1452.94 54.4617C1452.83 52.9745 1453.09 51.661 1453.71 50.5213C1454.33 49.3752 1455.25 48.4625 1456.46 47.7834C1457.68 47.0978 1459.14 46.6958 1460.83 46.5772C1462.54 46.4582 1464.04 46.6534 1465.34 47.1628C1466.65 47.6653 1467.68 48.4412 1468.45 49.4907C1469.22 50.5332 1469.66 51.798 1469.76 53.2853L1469.76 53.3048C1469.87 54.792 1469.61 56.1087 1468.99 57.2549C1468.38 58.3941 1467.46 59.3068 1466.24 59.9928C1465.02 60.6784 1463.56 61.0807 1461.86 61.1997ZM1461.73 59.3877C1463.01 59.2983 1464.1 58.9966 1465.01 58.4826C1465.93 57.9617 1466.62 57.2706 1467.08 56.4095C1467.54 55.5483 1467.74 54.5625 1467.66 53.4519L1467.66 53.4324C1467.58 52.3154 1467.25 51.3658 1466.67 50.5839C1466.1 49.7954 1465.32 49.2102 1464.34 48.8284C1463.37 48.4461 1462.24 48.2997 1460.96 48.3892C1459.69 48.4778 1458.6 48.7793 1457.69 49.2937C1456.77 49.8077 1456.09 50.4954 1455.62 51.357C1455.15 52.2117 1454.96 53.1975 1455.04 54.3146L1455.04 54.3341C1455.12 55.4447 1455.45 56.3942 1456.02 57.1827C1456.6 57.9711 1457.38 58.5598 1458.35 58.9485C1459.33 59.3303 1460.46 59.4768 1461.73 59.3877ZM1480.52 59.8945C1478.99 60.0017 1477.66 59.8336 1476.53 59.3904C1475.41 58.9467 1474.53 58.2579 1473.88 57.3241C1473.23 56.3839 1472.86 55.2318 1472.77 53.868L1472.22 46.0648L1474.28 45.921L1474.82 53.6366C1474.89 54.6497 1475.15 55.5027 1475.6 56.1954C1476.06 56.8816 1476.68 57.3893 1477.48 57.7185C1478.29 58.0406 1479.26 58.162 1480.39 58.0825C1481.52 58.0035 1482.46 57.7486 1483.21 57.3179C1483.96 56.8802 1484.51 56.2901 1484.87 55.5476C1485.22 54.7985 1485.36 53.9174 1485.29 52.9042L1484.75 45.1887L1486.82 45.0443L1487.36 52.8475C1487.46 54.2114 1487.25 55.4038 1486.74 56.4249C1486.23 57.4395 1485.45 58.2448 1484.39 58.8406C1483.34 59.4365 1482.05 59.7878 1480.52 59.8945ZM1491.31 58.8565L1490.32 44.7991L1499.02 44.1907C1500.02 44.1212 1500.89 44.2364 1501.64 44.5363C1502.39 44.8296 1502.98 45.2777 1503.42 45.8804C1503.86 46.4826 1504.11 47.2157 1504.17 48.0794L1504.17 48.0989C1504.24 49.1186 1504.03 50.0012 1503.54 50.7468C1503.06 51.4855 1502.33 52.0359 1501.35 52.3981L1505.31 57.8769L1502.89 58.0466L1499.19 52.8227C1499.18 52.8241 1499.16 52.8255 1499.14 52.8268C1499.12 52.8282 1499.09 52.8298 1499.07 52.8316L1492.98 53.2574L1493.36 58.7128L1491.31 58.8565ZM1492.86 51.572L1499.37 51.117C1500.28 51.0529 1500.98 50.7794 1501.45 50.2963C1501.92 49.8062 1502.13 49.1456 1502.07 48.3143L1502.07 48.2948C1502.01 47.4895 1501.71 46.8811 1501.15 46.4698C1500.6 46.0515 1499.86 45.8746 1498.94 45.9391L1492.5 46.3894L1492.86 51.572ZM1512.41 57.381L1518.47 42.831L1520.15 42.7132L1520.3 44.7784L1519.68 44.8214L1514.6 57.2277L1512.41 57.381ZM1515.16 53.2627L1515.85 51.5702L1524.52 50.9639L1525.41 52.546L1515.16 53.2627ZM1526.52 56.3939L1519.76 44.8159L1519.62 42.7506L1520.7 42.675L1528.72 56.24L1526.52 56.3939ZM1537.78 55.8903C1536.31 55.9934 1535.04 55.9226 1533.96 55.678C1532.89 55.4333 1532.03 55.0301 1531.38 54.4683C1530.73 53.9066 1530.32 53.2044 1530.15 52.3618L1530.12 52.2462L1532.19 52.1011L1532.22 52.2069C1532.38 52.6914 1532.7 53.0904 1533.17 53.4037C1533.63 53.7105 1534.25 53.9251 1535.02 54.0473C1535.79 54.1695 1536.72 54.1929 1537.8 54.1175C1538.73 54.0526 1539.51 53.8995 1540.16 53.6584C1540.82 53.4167 1541.31 53.1018 1541.63 52.7136C1541.97 52.3249 1542.11 51.8806 1542.08 51.3805L1542.08 51.3707C1542.03 50.7278 1541.75 50.2584 1541.22 49.9626C1540.69 49.6668 1539.79 49.4943 1538.54 49.4451L1535.19 49.3754C1533.51 49.3103 1532.25 48.9907 1531.41 48.4165C1530.57 47.842 1530.11 47.0027 1530.04 45.8986L1530.04 45.8888C1529.98 45.0445 1530.19 44.2955 1530.67 43.6418C1531.15 42.988 1531.87 42.4586 1532.8 42.0537C1533.74 41.6488 1534.87 41.4004 1536.18 41.3087C1537.55 41.2124 1538.75 41.2917 1539.78 41.5465C1540.8 41.8013 1541.62 42.2137 1542.24 42.7838C1542.87 43.3534 1543.27 44.0562 1543.45 44.8924L1543.47 44.9884L1541.4 45.1335L1541.37 45.0375C1541.18 44.5353 1540.87 44.1294 1540.44 43.8199C1540.02 43.5034 1539.47 43.2845 1538.77 43.1633C1538.09 43.0352 1537.25 43.0054 1536.27 43.074C1535.37 43.1371 1534.6 43.2821 1533.97 43.5089C1533.34 43.7357 1532.87 44.0333 1532.55 44.4016C1532.23 44.7629 1532.09 45.1871 1532.13 45.6742L1532.13 45.6839C1532.17 46.2814 1532.45 46.7283 1532.97 47.0246C1533.5 47.3139 1534.35 47.4798 1535.51 47.5224L1538.87 47.5914C1540.05 47.6395 1541.02 47.7936 1541.78 48.0535C1542.54 48.3135 1543.12 48.6943 1543.5 49.1958C1543.89 49.6973 1544.11 50.3248 1544.16 51.0782L1544.16 51.0879C1544.23 52.0036 1544.02 52.8046 1543.54 53.4909C1543.06 54.1706 1542.33 54.7173 1541.36 55.131C1540.39 55.5382 1539.2 55.7913 1537.78 55.8903ZM1554.01 54.7554C1552.54 54.8585 1551.27 54.7877 1550.19 54.5431C1549.12 54.2984 1548.26 53.8952 1547.61 53.3334C1546.96 52.7717 1546.55 52.0695 1546.38 51.2269L1546.35 51.1113L1548.42 50.9662L1548.45 51.072C1548.61 51.5565 1548.93 51.9555 1549.4 52.2688C1549.86 52.5756 1550.48 52.7901 1551.25 52.9124C1552.02 53.0346 1552.95 53.058 1554.03 52.9826C1554.96 52.9177 1555.74 52.7646 1556.39 52.5235C1557.05 52.2818 1557.54 51.9669 1557.86 51.5787C1558.2 51.19 1558.34 50.7457 1558.31 50.2456L1558.31 50.2358C1558.26 49.5929 1557.98 49.1235 1557.45 48.8277C1556.92 48.5319 1556.02 48.3594 1554.77 48.3102L1551.42 48.2405C1549.74 48.1754 1548.48 47.8558 1547.64 47.2816C1546.8 46.7071 1546.34 45.8678 1546.27 44.7637L1546.27 44.7539C1546.21 43.9096 1546.42 43.1606 1546.9 42.5068C1547.38 41.8531 1548.1 41.3237 1549.03 40.9188C1549.97 40.5139 1551.09 40.2655 1552.41 40.1738C1553.78 40.0775 1554.98 40.1568 1556.01 40.4116C1557.03 40.6664 1557.85 41.0788 1558.47 41.6489C1559.1 42.2185 1559.5 42.9213 1559.68 43.7575L1559.7 43.8535L1557.63 43.9986L1557.6 43.9026C1557.41 43.4004 1557.1 42.9945 1556.67 42.685C1556.25 42.3684 1555.7 42.1496 1555 42.0284C1554.32 41.9003 1553.48 41.8705 1552.5 41.9391C1551.6 42.0022 1550.83 42.1472 1550.2 42.374C1549.57 42.6008 1549.1 42.8984 1548.78 43.2666C1548.46 43.628 1548.32 44.0522 1548.36 44.5393L1548.36 44.549C1548.4 45.1465 1548.68 45.5934 1549.2 45.8897C1549.73 46.179 1550.58 46.3449 1551.74 46.3874L1555.1 46.4565C1556.28 46.5046 1557.25 46.6587 1558.01 46.9186C1558.77 47.1786 1559.35 47.5594 1559.73 48.0609C1560.12 48.5624 1560.34 49.1899 1560.39 49.9432L1560.39 49.953C1560.46 50.8687 1560.25 51.6697 1559.77 52.3559C1559.29 53.0357 1558.56 53.5824 1557.59 53.9961C1556.62 54.4033 1555.43 54.6564 1554.01 54.7554ZM1563.53 53.806L1562.55 39.7485L1574.76 38.8943L1574.89 40.6478L1564.73 41.3583L1565.03 45.635L1574.51 44.9715L1574.63 46.6666L1565.14 47.3301L1565.46 51.9087L1575.62 51.1982L1575.75 52.9518L1563.53 53.806ZM1584.07 52.37L1583.21 40.0855L1577.13 40.5106L1577.01 38.7376L1591.22 37.7437L1591.34 39.5167L1585.27 39.9411L1586.13 52.2256L1584.07 52.37Z" fill="white"/>
<g clip-path="url(#clip1_164_41)">
<path d="M1626.3 35.9092C1622.74 36.1582 1620.04 39.2583 1620.29 42.8197C1620.54 46.3811 1623.64 49.0759 1627.2 48.8269C1630.77 48.5778 1633.46 45.4778 1633.21 41.9164C1632.96 38.355 1629.86 35.6602 1626.3 35.9092ZM1629.67 42.1642L1626.96 45.2823L1623.84 42.5718L1626.55 39.4538L1629.67 42.1642Z" fill="#0EACC7"/>
<path d="M1633.31 34.8209C1631.3 33.0686 1628.72 32.2061 1626.05 32.3924C1623.39 32.5787 1620.96 33.7916 1619.21 35.8074C1617.45 37.8234 1616.59 40.401 1616.78 43.0656C1616.96 45.7302 1618.18 48.1627 1620.19 49.9152C1622.21 51.6675 1624.79 52.53 1627.45 52.3437C1630.11 52.1574 1632.55 50.9445 1634.3 48.9287C1636.05 46.9127 1636.91 44.3351 1636.73 41.6705C1636.54 39.0059 1635.33 36.5734 1633.31 34.8209ZM1627.29 49.9959C1623.08 50.29 1619.42 47.1075 1619.12 42.9014C1618.83 38.6954 1622.01 35.0343 1626.22 34.7402C1630.42 34.4461 1634.09 37.6286 1634.38 41.8346C1634.67 46.0407 1631.49 49.7018 1627.29 49.9959Z" fill="#0EACC7"/>
</g>
<path d="M1662.92 46.8559L1661.94 32.7985L1664.38 32.6275L1671.49 43.8776L1671.58 43.8715L1677.05 31.7419L1679.5 31.5702L1680.49 45.6277L1678.53 45.7646L1677.76 34.8246L1676.88 34.8865L1678.73 32.3386L1672.52 46.1849L1670.87 46.3001L1662.79 33.4538L1664.99 35.7176L1664.1 35.7796L1664.87 46.7197L1662.92 46.8559ZM1682.89 45.4594L1688.95 30.9095L1690.64 30.7916L1690.78 32.8569L1690.17 32.8998L1685.08 45.3062L1682.89 45.4594ZM1685.65 41.3411L1686.33 39.6486L1695 39.0423L1695.9 40.6245L1685.65 41.3411ZM1697.01 44.4724L1690.25 32.8943L1690.1 30.8291L1691.18 30.7535L1699.21 44.3184L1697.01 44.4724ZM1702.89 39.2253L1702.69 36.684L1703.23 36.6466L1711.39 29.3406L1714.31 29.1363L1706.44 36.0697L1706.13 36.287L1702.89 39.2253ZM1701.62 44.1502L1700.63 30.0927L1702.69 29.9489L1703.67 44.0064L1701.62 44.1502ZM1712.96 43.3572L1705.16 36.6877L1706.6 35.2948L1715.75 43.1617L1712.96 43.3572ZM1718.06 43.0003L1717.08 28.9428L1729.29 28.0885L1729.42 29.8421L1719.26 30.5526L1719.55 34.8293L1729.04 34.1657L1729.16 35.8608L1719.67 36.5243L1719.99 41.103L1730.15 40.3925L1730.28 42.146L1718.06 43.0003ZM1740.2 36.6162L1740 34.075L1740.54 34.0375L1748.7 26.7316L1751.62 26.5272L1743.75 33.4606L1743.44 33.678L1740.2 36.6162ZM1738.93 41.5411L1737.94 27.4836L1740 27.3399L1740.98 41.3974L1738.93 41.5411ZM1750.27 40.7482L1742.47 34.0787L1743.91 32.6858L1753.06 40.5527L1750.27 40.7482ZM1755.37 40.3912L1754.39 26.3337L1756.44 26.19L1757.43 40.2475L1755.37 40.3912ZM1760.96 40.0002L1759.98 25.9427L1761.91 25.8078L1774.68 37.406L1772.39 36.2837L1773.34 36.2177L1772.56 25.0633L1774.58 24.9216L1775.57 38.979L1773.62 39.1153L1760.86 27.506L1763.14 28.6387L1762.2 28.7048L1762.98 39.8592L1760.96 40.0002ZM1779.08 38.7331L1778.1 24.6757L1785.53 24.1559C1787.16 24.0424 1788.56 24.2219 1789.73 24.6944C1790.91 25.167 1791.83 25.9054 1792.49 26.9097C1793.15 27.914 1793.54 29.15 1793.64 30.6178L1793.64 30.6373C1793.75 32.1181 1793.54 33.4052 1793.02 34.4986C1792.5 35.5921 1791.7 36.4578 1790.6 37.0958C1789.51 37.7268 1788.15 38.0994 1786.52 38.2134L1779.08 38.7331ZM1781.01 36.8164L1786.27 36.4492C1787.49 36.3638 1788.5 36.0905 1789.31 35.6293C1790.12 35.168 1790.71 34.5327 1791.09 33.7234C1791.47 32.9071 1791.62 31.9372 1791.54 30.8137L1791.54 30.7942C1791.46 29.6706 1791.18 28.7342 1790.7 27.9848C1790.21 27.2289 1789.53 26.6792 1788.66 26.3355C1787.8 25.985 1786.75 25.8524 1785.53 25.9378L1780.28 26.3049L1781.01 36.8164ZM1797.11 37.4729L1796.12 23.4154L1798.05 23.2805L1810.83 34.8787L1808.53 33.7564L1809.48 33.6904L1808.7 22.536L1810.73 22.3943L1811.71 36.4517L1809.76 36.588L1797.01 24.9787L1799.29 26.1114L1798.34 26.1775L1799.12 37.3319L1797.11 37.4729ZM1815.23 36.2058L1814.24 22.1483L1826.46 21.2941L1826.58 23.0476L1816.42 23.7581L1816.72 28.0348L1826.21 27.3713L1826.33 29.0664L1816.84 29.7299L1817.16 34.3085L1827.32 33.598L1827.44 35.3516L1815.23 36.2058ZM1837.27 34.9481C1835.8 35.0512 1834.52 34.9804 1833.45 34.7357C1832.37 34.4911 1831.51 34.0879 1830.87 33.5261C1830.22 32.9644 1829.81 32.2622 1829.63 31.4196L1829.61 31.304L1831.68 31.1589L1831.71 31.2647C1831.87 31.7492 1832.19 32.1481 1832.65 32.4615C1833.12 32.7683 1833.74 32.9828 1834.51 33.105C1835.28 33.2273 1836.21 33.2507 1837.28 33.1753C1838.21 33.1103 1839 32.9573 1839.65 32.7161C1840.31 32.4745 1840.8 32.1596 1841.12 31.7714C1841.45 31.3827 1841.6 30.9383 1841.57 30.4383L1841.57 30.4285C1841.52 29.7856 1841.23 29.3162 1840.7 29.0204C1840.17 28.7246 1839.28 28.5521 1838.02 28.5029L1834.68 28.4332C1833 28.3681 1831.74 28.0484 1830.89 27.4743C1830.06 26.8998 1829.6 26.0604 1829.52 24.9564L1829.52 24.9466C1829.46 24.1023 1829.68 23.3533 1830.16 22.6995C1830.64 22.0458 1831.35 21.5164 1832.29 21.1115C1833.23 20.7065 1834.35 20.4582 1835.66 20.3665C1837.04 20.2702 1838.24 20.3495 1839.26 20.6042C1840.29 20.859 1841.11 21.2715 1841.73 21.8415C1842.36 22.4111 1842.76 23.114 1842.93 23.9501L1842.96 24.0462L1840.89 24.1913L1840.86 24.0952C1840.67 23.5931 1840.36 23.1872 1839.93 22.8776C1839.51 22.5611 1838.95 22.3423 1838.26 22.2211C1837.57 22.093 1836.74 22.0632 1835.76 22.1318C1834.86 22.1949 1834.09 22.3399 1833.46 22.5667C1832.83 22.7935 1832.35 23.091 1832.03 23.4593C1831.72 23.8207 1831.58 24.2449 1831.61 24.732L1831.61 24.7417C1831.66 25.3392 1831.94 25.7861 1832.46 26.0823C1832.99 26.3716 1833.84 26.5376 1835 26.5801L1838.36 26.6492C1839.53 26.6973 1840.5 26.8514 1841.27 27.1113C1842.03 27.3713 1842.6 27.752 1842.99 28.2536C1843.38 28.7551 1843.6 29.3826 1843.65 30.1359L1843.65 30.1457C1843.72 31.0614 1843.51 31.8624 1843.03 32.5486C1842.55 33.2284 1841.82 33.7751 1840.85 34.1888C1839.88 34.596 1838.69 34.8491 1837.27 34.9481ZM1853.5 33.8132C1852.03 33.9163 1850.75 33.8455 1849.68 33.6008C1848.6 33.3562 1847.74 32.953 1847.1 32.3912C1846.45 31.8294 1846.04 31.1273 1845.86 30.2847L1845.84 30.1691L1847.91 30.024L1847.94 30.1298C1848.1 30.6143 1848.42 31.0132 1848.88 31.3266C1849.35 31.6334 1849.97 31.8479 1850.74 31.9701C1851.51 32.0924 1852.44 32.1158 1853.51 32.0404C1854.44 31.9754 1855.23 31.8224 1855.88 31.5812C1856.54 31.3396 1857.03 31.0247 1857.35 30.6365C1857.68 30.2478 1857.83 29.8034 1857.8 29.3034L1857.8 29.2936C1857.75 28.6507 1857.46 28.1813 1856.93 27.8855C1856.4 27.5897 1855.51 27.4172 1854.25 27.368L1850.91 27.2983C1849.23 27.2332 1847.97 26.9135 1847.12 26.3394C1846.29 25.7649 1845.83 24.9255 1845.75 23.8215L1845.75 23.8117C1845.69 22.9674 1845.91 22.2184 1846.39 21.5646C1846.87 20.9109 1847.58 20.3815 1848.52 19.9766C1849.46 19.5716 1850.58 19.3233 1851.89 19.2316C1853.27 19.1353 1854.47 19.2145 1855.49 19.4693C1856.52 19.7241 1857.34 20.1366 1857.96 20.7066C1858.59 21.2762 1858.99 21.9791 1859.16 22.8152L1859.19 22.9113L1857.12 23.0564L1857.09 22.9603C1856.9 22.4582 1856.59 22.0523 1856.16 21.7427C1855.74 21.4262 1855.18 21.2074 1854.49 21.0862C1853.8 20.9581 1852.97 20.9283 1851.99 20.9969C1851.09 21.06 1850.32 21.205 1849.69 21.4318C1849.06 21.6586 1848.58 21.9561 1848.26 22.3244C1847.95 22.6858 1847.81 23.11 1847.84 23.5971L1847.84 23.6068C1847.89 24.2043 1848.17 24.6512 1848.69 24.9474C1849.22 25.2367 1850.07 25.4027 1851.23 25.4452L1854.59 25.5142C1855.76 25.5624 1856.73 25.7164 1857.5 25.9764C1858.26 26.2364 1858.83 26.6171 1859.22 27.1187C1859.61 27.6202 1859.83 28.2477 1859.88 29.001L1859.88 29.0108C1859.95 29.9265 1859.74 30.7275 1859.26 31.4137C1858.78 32.0935 1858.05 32.6402 1857.08 33.0539C1856.11 33.4611 1854.92 33.7142 1853.5 33.8132ZM1874.09 32.0899L1873.69 26.4494L1866.46 18.497L1868.88 18.3274L1874.55 24.5881L1874.64 24.582L1879.39 17.5931L1881.81 17.4234L1875.76 26.305L1876.15 31.9455L1874.09 32.0899ZM1891.81 31.1347C1890.1 31.2536 1888.6 31.0584 1887.3 30.549C1886 30.0396 1884.96 29.2637 1884.19 28.2212C1883.43 27.1718 1882.99 25.9034 1882.89 24.4162L1882.89 24.3967C1882.78 22.9094 1883.04 21.596 1883.66 20.4563C1884.28 19.3101 1885.2 18.3975 1886.41 17.7184C1887.63 17.0328 1889.09 16.6307 1890.78 16.5122C1892.49 16.3932 1893.99 16.5884 1895.29 17.0978C1896.6 17.6002 1897.63 18.3762 1898.4 19.4256C1899.17 20.4681 1899.61 21.733 1899.71 23.2202L1899.71 23.2397C1899.82 24.727 1899.56 26.0437 1898.94 27.1898C1898.33 28.3291 1897.41 29.2417 1896.19 29.9278C1894.97 30.6134 1893.51 31.0157 1891.81 31.1347ZM1891.68 29.3227C1892.96 29.2332 1894.05 28.9315 1894.96 28.4175C1895.88 27.8966 1896.57 27.2056 1897.03 26.3444C1897.49 25.4833 1897.69 24.4974 1897.61 23.3869L1897.61 23.3674C1897.53 22.2503 1897.2 21.3008 1896.62 20.5188C1896.05 19.7303 1895.27 19.1452 1894.29 18.7634C1893.32 18.3811 1892.19 18.2347 1890.91 18.3241C1889.64 18.4127 1888.55 18.7142 1887.64 19.2286C1886.73 19.7426 1886.04 20.4304 1885.57 21.292C1885.11 22.1466 1884.91 23.1325 1884.99 24.2495L1884.99 24.269C1885.07 25.3796 1885.4 26.3291 1885.97 27.1176C1886.55 27.9061 1887.33 28.4947 1888.3 28.8835C1889.28 29.2653 1890.41 29.4117 1891.68 29.3227ZM1910.47 29.8294C1908.94 29.9366 1907.61 29.7686 1906.48 29.3253C1905.36 28.8816 1904.48 28.1928 1903.83 27.2591C1903.18 26.3188 1902.81 25.1668 1902.72 23.8029L1902.17 15.9997L1904.23 15.856L1904.77 23.5715C1904.84 24.5846 1905.1 25.4376 1905.55 26.1303C1906.01 26.8166 1906.63 27.3243 1907.43 27.6534C1908.24 27.9756 1909.21 28.0969 1910.34 28.0175C1911.47 27.9384 1912.41 27.6836 1913.16 27.2528C1913.91 26.8152 1914.46 26.225 1914.82 25.4825C1915.17 24.7334 1915.31 23.8523 1915.24 22.8392L1914.7 15.1237L1916.77 14.9792L1917.31 22.7824C1917.41 24.1463 1917.2 25.3388 1916.69 26.3599C1916.18 27.3745 1915.4 28.1797 1914.34 28.7756C1913.29 29.3714 1912 29.7227 1910.47 29.8294ZM1921.26 28.7915L1920.27 14.734L1928.97 14.1257C1929.97 14.0562 1930.84 14.1714 1931.59 14.4712C1932.34 14.7646 1932.93 15.2126 1933.37 15.8153C1933.81 16.4176 1934.06 17.1506 1934.12 18.0144L1934.12 18.0339C1934.19 19.0535 1933.98 19.9361 1933.49 20.6817C1933.01 21.4204 1932.28 21.9708 1931.3 22.333L1935.26 27.8119L1932.84 27.9815L1929.14 22.7577C1929.13 22.759 1929.11 22.7604 1929.09 22.7618C1929.07 22.7631 1929.04 22.7647 1929.02 22.7665L1922.93 23.1923L1923.31 28.6477L1921.26 28.7915ZM1922.81 21.507L1929.32 21.0519C1930.24 20.9879 1930.93 20.7143 1931.4 20.2312C1931.87 19.7412 1932.08 19.0805 1932.02 18.2492L1932.02 18.2297C1931.96 17.4244 1931.66 16.8161 1931.1 16.4047C1930.55 15.9864 1929.81 15.8095 1928.89 15.874L1922.45 16.3243L1922.81 21.507ZM1942.36 27.316L1948.42 12.766L1950.1 12.6481L1950.25 14.7134L1949.63 14.7563L1944.55 27.1627L1942.36 27.316ZM1945.11 23.1976L1945.8 21.5051L1954.47 20.8988L1955.36 22.481L1945.11 23.1976ZM1956.47 26.3289L1949.71 14.7508L1949.57 12.6856L1950.65 12.61L1958.67 26.1749L1956.47 26.3289ZM1967.73 25.8253C1966.26 25.9284 1964.99 25.8576 1963.91 25.6129C1962.84 25.3682 1961.98 24.965 1961.33 24.4033C1960.68 23.8415 1960.27 23.1393 1960.1 22.2967L1960.07 22.1812L1962.14 22.0361L1962.17 22.1419C1962.34 22.6264 1962.65 23.0253 1963.12 23.3386C1963.58 23.6455 1964.2 23.86 1964.97 23.9822C1965.74 24.1044 1966.67 24.1278 1967.75 24.0525C1968.68 23.9875 1969.46 23.8345 1970.11 23.5933C1970.77 23.3517 1971.26 23.0368 1971.58 22.6486C1971.92 22.2599 1972.06 21.8155 1972.03 21.3154L1972.03 21.3057C1971.98 20.6627 1971.7 20.1933 1971.17 19.8975C1970.64 19.6017 1969.74 19.4292 1968.49 19.3801L1965.14 19.3104C1963.46 19.2452 1962.2 18.9256 1961.36 18.3515C1960.52 17.7769 1960.06 16.9376 1959.99 15.8335L1959.99 15.8238C1959.93 14.9795 1960.14 14.2305 1960.62 13.5767C1961.11 12.9229 1961.82 12.3936 1962.75 11.9886C1963.69 11.5837 1964.82 11.3354 1966.13 11.2436C1967.5 11.1474 1968.7 11.2266 1969.73 11.4814C1970.75 11.7362 1971.57 12.1486 1972.19 12.7187C1972.82 13.2883 1973.22 13.9912 1973.4 14.8273L1973.42 14.9233L1971.35 15.0684L1971.32 14.9724C1971.13 14.4702 1970.82 14.0644 1970.39 13.7548C1969.97 13.4383 1969.42 13.2194 1968.72 13.0983C1968.04 12.9702 1967.2 12.9404 1966.22 13.009C1965.32 13.0721 1964.55 13.217 1963.92 13.4439C1963.29 13.6707 1962.82 13.9682 1962.5 14.3365C1962.18 14.6978 1962.04 15.122 1962.08 15.6091L1962.08 15.6189C1962.12 16.2164 1962.4 16.6632 1962.92 16.9595C1963.45 17.2488 1964.3 17.4147 1965.47 17.4573L1968.82 17.5263C1970 17.5745 1970.97 17.7285 1971.73 17.9885C1972.49 18.2484 1973.07 18.6292 1973.45 19.1307C1973.84 19.6323 1974.06 20.2597 1974.11 21.0131L1974.11 21.0228C1974.18 21.9386 1973.97 22.7396 1973.49 23.4258C1973.01 24.1055 1972.28 24.6523 1971.31 25.066C1970.34 25.4732 1969.15 25.7263 1967.73 25.8253ZM1983.96 24.6904C1982.49 24.7934 1981.22 24.7227 1980.14 24.478C1979.07 24.2333 1978.21 23.8301 1977.56 23.2684C1976.91 22.7066 1976.5 22.0044 1976.33 21.1618L1976.3 21.0463L1978.37 20.9012L1978.4 21.007C1978.56 21.4915 1978.88 21.8904 1979.35 22.2037C1979.81 22.5106 1980.43 22.7251 1981.2 22.8473C1981.97 22.9695 1982.9 22.9929 1983.98 22.9175C1984.91 22.8526 1985.69 22.6996 1986.34 22.4584C1987 22.2168 1987.49 21.9019 1987.81 21.5136C1988.15 21.125 1988.29 20.6806 1988.26 20.1805L1988.26 20.1708C1988.21 19.5278 1987.93 19.0584 1987.4 18.7626C1986.87 18.4668 1985.97 18.2943 1984.72 18.2451L1981.37 18.1754C1979.69 18.1103 1978.43 17.7907 1977.59 17.2166C1976.75 16.642 1976.29 15.8027 1976.22 14.6986L1976.22 14.6889C1976.16 13.8446 1976.37 13.0956 1976.85 12.4418C1977.33 11.788 1978.05 11.2587 1978.98 10.8537C1979.92 10.4488 1981.05 10.2005 1982.36 10.1087C1983.73 10.0125 1984.93 10.0917 1985.96 10.3465C1986.98 10.6013 1987.8 11.0137 1988.42 11.5838C1989.05 12.1534 1989.45 12.8563 1989.63 13.6924L1989.65 13.7884L1987.58 13.9335L1987.55 13.8375C1987.36 13.3353 1987.05 12.9295 1986.62 12.6199C1986.2 12.3034 1985.65 12.0845 1984.95 11.9634C1984.27 11.8352 1983.43 11.8055 1982.45 11.874C1981.55 11.9372 1980.78 12.0821 1980.15 12.3089C1979.52 12.5358 1979.05 12.8333 1978.73 13.2016C1978.41 13.5629 1978.27 13.9871 1978.31 14.4742L1978.31 14.484C1978.35 15.0815 1978.63 15.5283 1979.15 15.8246C1979.68 16.1139 1980.53 16.2798 1981.7 16.3224L1985.05 16.3914C1986.23 16.4396 1987.2 16.5936 1987.96 16.8536C1988.72 17.1135 1989.3 17.4943 1989.68 17.9958C1990.07 18.4974 1990.29 19.1248 1990.34 19.8782L1990.34 19.8879C1990.41 20.8037 1990.2 21.6046 1989.72 22.2909C1989.24 22.9706 1988.51 23.5174 1987.54 23.9311C1986.57 24.3383 1985.38 24.5914 1983.96 24.6904ZM1993.48 23.7409L1992.5 9.68346L2004.71 8.82922L2004.84 10.5827L1994.68 11.2933L1994.98 15.5699L2004.46 14.9064L2004.58 16.6015L1995.09 17.265L1995.41 21.8437L2005.58 21.1332L2005.7 22.8867L1993.48 23.7409ZM2014.02 22.3049L2013.16 10.0205L2007.08 10.4456L2006.96 8.67254L2021.17 7.67865L2021.29 9.45166L2015.22 9.87606L2016.08 22.1605L2014.02 22.3049Z" fill="white"/>
<defs>
<clipPath id="clip0_164_41">
<rect width="20" height="20" fill="white" transform="translate(756.179 93.22) rotate(-4)"/>
</clipPath>
<clipPath id="clip1_164_41">
<rect width="20" height="20" fill="white" transform="translate(1616.08 33.09) rotate(-4)"/>
</clipPath>
</defs>
</svg>
